<?xml version="1.0" encoding="utf-8"?>
<!-- Generator: Adobe Illustrator 23.0.3, SVG Export Plug-In . SVG Version: 6.00 Build 0)  -->
<svg version="1.1" id="Layer_1" xmlns="http://www.w3.org/2000/svg" xmlns:xlink="http://www.w3.org/1999/xlink" x="0px" y="0px"
	 viewBox="0 0 100.8 100.8" style="enable-background:new 0 0 100.8 100.8;" xml:space="preserve">
<style type="text/css">
	.st0{fill:#83151D;}
	.st1{fill:#808285;}
	.st2{fill:#FFFFFF;}
	.st3{fill:#8A0028;}
	.st4{fill:none;}
	.st5{fill:#840029;}
</style>
<g>
	<g>
		<path class="st0" d="M93,50.4c0,23.7-19.1,42.9-42.6,42.9c-23.5,0-42.6-19.2-42.6-42.9c0-23.7,19.1-42.9,42.6-42.9
			C73.9,7.5,93,26.7,93,50.4z"/>
		<path class="st1" d="M50.4,93.6c-5.8,0-11.4-1.1-16.7-3.4c-5.1-2.2-9.7-5.3-13.6-9.3c-3.9-4-7-8.6-9.2-13.7
			c-2.2-5.3-3.4-11-3.4-16.8c0-5.8,1.1-11.5,3.4-16.8c2.2-5.1,5.3-9.8,9.2-13.7c3.9-4,8.5-7.1,13.6-9.3C39,8.3,44.6,7.2,50.4,7.2
			s11.4,1.1,16.7,3.4c5.1,2.2,9.7,5.3,13.6,9.3c3.9,4,7,8.6,9.2,13.7c2.2,5.3,3.4,11,3.4,16.8c0,5.8-1.1,11.5-3.4,16.8
			c-2.2,5.1-5.3,9.8-9.2,13.7c-3.9,4-8.5,7.1-13.6,9.3C61.8,92.5,56.2,93.6,50.4,93.6z M50.4,7.8C27.1,7.8,8.1,26.9,8.1,50.4
			c0,23.5,19,42.6,42.3,42.6c23.3,0,42.3-19.1,42.3-42.6C92.7,26.9,73.7,7.8,50.4,7.8z"/>
	</g>
	<g>
		<path class="st2" d="M83.5,50c0,18.2-14.8,32.9-33,32.9c-18.2,0-33-14.7-33-32.9c0-18.1,14.8-32.9,33-32.9
			C68.7,17.1,83.5,31.8,83.5,50z"/>
	</g>
	<g>
		<path class="st1" d="M83.7,48.9c0.2,5.4-1,10.2-2.7,13.9c-3.4,7.6-8.8,13.3-16.4,16.9c-3.8,1.8-8.2,3-13,3.1
			c-10.4,0.3-18.3-3.8-24-9c-5.6-5.2-10-12.7-10.4-22.8c-0.2-4.9,1-9.7,2.6-13.5c3.3-7.9,8.7-13.2,16.2-17c1.7-0.9,3.8-1.8,6-2.3
			c2.4-0.5,4.8-0.9,7.4-1c10.4-0.5,18.5,3.9,24,9C79,31.3,83.3,39,83.7,48.9z M82,58c1-1.9,0.6-4.8,0.6-7.8c0-3,0.2-5.9-0.7-7.6
			c-0.1,0-0.1,0.1-0.1,0.2C81.9,47.8,81.7,53.1,82,58z M81,61.4c0-7.6,0-15.1,0-22.7c-0.4-0.3-0.3-1.1-0.8-1.4
			c0,0.1-0.1,0.1-0.1,0.2c0.1,8.3-0.2,17,0.1,25C80.8,62.4,80.7,61.7,81,61.4z M79.3,39.2c0-2,0.3-4.5-0.8-5.1
			c0.1,10.5-0.2,21.4,0.1,31.6c1-0.7,0.6-2.1,0.6-3.2C79.3,54.7,79.3,46.9,79.3,39.2z M77.7,65.4c0-8.2,0.1-16.8-0.1-24.7
			c-1,6.5-0.4,14.7-0.6,22.1c0.4,0.2,0.4-0.5,0.6-0.3c0.2,0.8-0.4,1.5-0.5,2.2c-0.2,1.1,0.1,2.2,0,3.5C78,67.8,77.7,66.4,77.7,65.4z
			 M77.7,38.4c0-2,0-3.9,0-5.9c-0.2-0.3-0.4-0.8-0.7-1C76.8,34.1,77.3,36,77.7,38.4z M77.1,63.5c0-0.1-0.1-0.1-0.1-0.1
			c-0.8,0.7-2.5,0.5-2.9,1.7c0.3,0.1,0.4,0.5,0.7,0.5C75.5,65.6,77.1,64.2,77.1,63.5z M76.7,41.1c0-0.7,0-1.3,0-2
			c-3.5-0.2-6.6-0.3-9-1.4c-1.2-0.1-2.5-0.3-3.6-0.8c-0.6-0.3-1.1-0.8-1.7-1c-0.7-0.3-1.5-0.4-2.1-0.7c-0.5-0.2-0.8-0.6-1.2-0.8
			c-2.1-1-4.5-0.6-7.3-0.5c-1.2,0.1-2.3,0.4-3.4,0.5c-0.8,0.1-1.6-0.1-2.2,0.1c-0.7,0.2-1.2,0.7-1.9,1c-0.8,0.4-1.8,0.4-2.3,0.8
			c-0.5,0.4-0.7,1.2-1.2,1.6c-0.4,0.3-1,0.3-1.6,0.6c-0.6,0.3-1.1,0.8-1.6,1c-0.9,0.4-1.9,0.5-2.8,1c-0.2,0.1-0.7,0.2-0.5,0.6
			C48.5,41.1,62.6,41.1,76.7,41.1z M76.7,38.7c0.1-0.4,0-1,0.1-1.4c-2.5-1-5.7-0.9-8.2-0.7c-0.8,0.1-1.7,0-2.3,0.5
			C69.5,38.1,72.9,38.8,76.7,38.7z M76.4,43.4c0.2-0.2,0.2-0.5,0.2-0.8c-0.4-0.2-0.7-0.5-1-0.8c-2.1,0.1-3.1,1-5.3,0.8
			c0-0.3,0-0.6-0.1-0.8c-2.2-0.7-3.8,1-6.2,0.8c0-0.3,0-0.6-0.1-0.7c-2-0.1-3.8,1.2-6,0.7c0-0.2,0.1-0.4,0-0.6
			c-2.3-0.3-4.8,1-6.9,0.7c-0.2-0.1-0.1-0.6-0.3-0.7c-2.4-0.2-4,1.1-6.6,0.8c-0.1-0.1,0-0.6-0.1-0.7c-2.3-0.5-4.3,1.4-7,0.8
			c-0.1-0.2-0.2-0.5-0.3-0.7c-1.3-0.6-3.3,0.7-4.7,0.8c-1.1,0.1-1.4-0.3-1.6-1c-1.5,0-2.5,0.2-3.6,0.6c-0.7,0.2-1.9,0.4-1.7,1.2
			c1.4-0.3,3-1.2,4.7-1.2c0.1,0.2,0,0.4,0.2,0.6c1.9,0.9,3.7-0.7,5.8-0.5c0.1,0.2,0.1,0.5,0.3,0.6c2.6,0.6,4.7-0.8,7.2-0.7
			c0,0.2-0.3,0.4-0.1,0.6c0.5,0.5,1.7,0.4,2.4,0.3c1.5-0.1,3-0.8,4.5-0.8c0.1,0.2,0.1,0.5,0.2,0.6c2.5,0.7,4.4-0.6,6.7-0.7
			c-0.1,0.6,0.4,0.7,0.6,0.9c2.2,0.1,3.5-0.6,5.4-0.8c0.2,0.1,0.2,0.5,0.5,0.6c2.3,0.4,3.9-0.7,5.7-0.6c0.1,0.1,0,0.3,0.1,0.5
			c1.9,1,4-0.3,6-0.5c0,0.2-0.1,0.4,0.1,0.5C75.6,43.3,76,43.4,76.4,43.4z M75.6,70.3c1.1-0.4,0.5-3.1,0.6-4.7
			c-0.3-0.1-0.6,0.2-0.8,0.4C75.6,67.4,75.3,69.2,75.6,70.3z M76.2,62.4c0-4.1,0-8.6-0.1-12.4c0-0.1-0.1-0.1-0.1-0.1
			c-0.2,0.7-0.5,1.3-0.6,1.9c-0.2,3.3,0,8.4,0.1,11.7C76.3,63.6,76.2,62.9,76.2,62.4z M76.1,33.8c0.1-0.2-0.1-0.5-0.1-0.9
			c-5.5,0.1-12.8,0.1-18.4,0.5c0.5,0.4,1.3,0.3,1.9,0.3C65.4,34,70.3,33.7,76.1,33.8z M75.3,30c0.2,0,0.4-0.1,0.5-0.1
			c-0.1-0.4-0.2-0.6-0.6-0.6C75.3,29.4,75.2,29.8,75.3,30z M74.7,71.6c0.3-1.1-0.2-3.3-0.1-4.4c-0.2,0.1-0.6,0.3-0.6,0.6
			c-0.3,1.1,0.2,3.3,0.1,4.4C74.3,72.2,74.6,71.9,74.7,71.6z M71.6,68.2c0.9-0.3,3.3-1,3-2.2c-0.1-0.4-1.4-1.3-1.9-1.4
			c-1.1,1.5-3.5,1.5-5.1,2.7c1,0.3,1.3,1.3,1.7,2.1C70,68.9,70.7,68.5,71.6,68.2z M74.1,64.3c0.8-0.2,0.5-1.4,0.5-2.1
			c0-2.7,0-5.7,0-8.2c0,0,0-0.1-0.1-0.1c0,0,0-0.1-0.1-0.1c-0.8,0.9-0.6,2.3-0.6,4.1c0,1-0.1,2.1,0,3C73.9,62,74.5,63.1,74.1,64.3z
			 M74.4,30.2c0-1.1,0.3-2.6-0.8-2.7c0,0.9,0,1.9,0,2.8C73.9,30.4,74.2,30.3,74.4,30.2z M73.7,64.6c0-1.1,0.2-3.1-0.5-3.8
			C72.8,62,72.2,64.5,73.7,64.6z M67.9,61.8c4.2-4.5,7.5-10.3,8.4-17.8c-8.2-0.2-16.7,0-25-0.1c-0.1,0-0.1,0.1-0.1,0.2
			c0,9-0.1,18.2,0.1,27.1C58.2,69.9,63.7,66.3,67.9,61.8z M73.1,70.7c0-0.9,0.1-1.9-0.1-2.4c-0.3,0-0.4,0.2-0.6,0.2
			c0,1.8,0,3.5,0,5.3C73.4,73.8,73.1,72.1,73.1,70.7z M72.7,59.5c0-0.2,0.4,0.1,0.3-0.2c-0.1-0.7,0.2-1.8-0.1-2.3
			c-1,0.8-0.6,3.8-0.5,5.3C72.8,61.6,72.9,60.5,72.7,59.5z M72.7,30.6c-0.1-1.4,0.7-4.2-0.6-4.5c0,1.5-0.1,3.2,0.1,4.6
			C72.4,30.7,72.5,30.6,72.7,30.6z M71.5,74.8c-0.1-1.9,0.2-4.2-0.1-5.9c-0.3,0-0.5,0.1-0.6,0.3c0.1,2-0.2,4.3,0.1,6.1
			C71.2,75.2,71.2,74.9,71.5,74.8z M71.4,65.1c-0.3-1.8,0.4-4.1-0.1-5.6c0,0-0.1,0-0.1,0c-0.2,0.2-0.6,0.4-0.6,0.8
			c-0.3,1.3,0.2,3.7,0.1,5.1C71.1,65.4,71.2,65.2,71.4,65.1z M71.2,30.9c0-1.9,0-3.8,0-5.6c-0.2-0.2-0.4-0.5-0.8-0.6
			c-0.1,1.9-0.2,4.5,0.1,6.3C70.8,31,71,30.9,71.2,30.9z M69.3,76.4c0.9-0.3,0.6-1.8,0.6-2.9c0-1.2,0-2.5,0-3.5
			c-0.1,0-0.1-0.1-0.2-0.1c0,0.1-0.1,0.2-0.2,0.2c0.3,0.8-0.2,1.6-0.3,2.4C68.9,73.9,69.2,75.2,69.3,76.4z M69.7,65.9
			c0.1-1.4,0.2-3.4-0.1-4.7c-0.1,0.2-0.5,0.3-0.6,0.6c-0.3,1.1,0.1,3.2,0.1,4.1C69.4,66,69.5,65.9,69.7,65.9z M69.4,31
			c0.3-2.1,0-4.8,0.1-7.2c-0.2-0.1-0.4-0.4-0.7-0.4c0,0.1,0,0.1,0,0.2c0,1.8,0,4.1,0,6C68.8,30.1,68.6,31.1,69.4,31z M69.3,71.8
			c0-1.6-0.3-2.8-0.9-3.8c0,0-0.1,0-0.1,0c-0.1,0-0.2,0.1-0.2,0.2c-2.6,5.4-13.7,2.3-17.2,6.8c0,1.6-0.1,3.3,0.1,4.8
			c0.6-0.1,1-0.6,1.6-1c1.6-1,3.5-1.9,5.6-2.5C62.4,75.3,67.5,75.2,69.3,71.8z M68.3,77.1c0-1.1,0-2.2,0-3.2
			c-0.3-0.1-0.5,0.3-0.8,0.4c0,1-0.1,2.2,0.1,3.2C68,77.5,68,77.2,68.3,77.1z M68.2,66.4c-0.1-1.2,0.2-2.7-0.1-3.6
			c-1,0.4-0.7,2.8-0.5,3.9C67.9,66.7,68,66.5,68.2,66.4z M68,30.7c0-2.7,0-5.4,0-8c-0.2-0.1-0.7-0.7-0.8-0.2c0,2.7,0,5.4,0,8.1
			C67.4,30.7,67.7,30.8,68,30.7z M67.1,68.8c0.6-0.1,0.7-1.3-0.2-1C66.3,68,66.5,68.9,67.1,68.8z M66.7,76.4c0-0.6,0.2-1.3-0.2-1.6
			c-0.2,0-0.3,0.1-0.5,0.2c0,1-0.3,2.7,0.1,3.4c0.2-0.1,0.4-0.2,0.6-0.3C66.7,77.6,66.7,77,66.7,76.4z M66.6,67.3c0-0.9,0-1.8,0-2.7
			c-0.3-0.1-0.5,0.3-0.8,0.5c0,1.1-0.1,2.3,0.1,3.2C66.2,68,66.3,67.5,66.6,67.3z M66.2,30.4c0.2-2.7,0-5.8,0.1-8.6
			c-0.2-0.2-0.4-0.4-0.8-0.5c0,0.1,0,0.1,0,0.2c0,2.2,0,4.9,0,7.2C65.5,29.4,65.3,30.5,66.2,30.4z M65.9,69.8c0.2,0,0.3-0.2,0.5-0.2
			c-0.1-0.3-0.2-0.4-0.5-0.5C65.9,69.3,65.9,69.6,65.9,69.8z M67.8,36.2c-1.4-0.3-3.3-0.4-4.8-0.5C63.8,37.1,66.4,36.8,67.8,36.2z
			 M65,79c0.1-1.1,0.1-2.6,0-3.6c-0.3,0-0.4,0-0.6,0.1c-0.1,1.1-0.1,2.7,0,3.8C64.7,79.3,64.8,79.1,65,79z M64.3,70.7
			c0.2,0.2,0.4-0.1,0.6-0.1c-0.1-1.5,0.2-3.3-0.1-4.6c-0.3,0.1-0.5,0.3-0.6,0.5C64.3,67.8,64,69.5,64.3,70.7z M64.6,30
			c0.2-2.9,0-6.1,0.1-9.1c-0.2-0.2-0.6-0.5-0.8-0.4c0,2.3,0,5.5,0,7.8C63.9,29.1,63.7,30.1,64.6,30z M63.3,79.9
			c0.2-1.1,0.1-2.9,0.1-4.1c-0.2-0.1-0.6,0.1-0.8,0.2c0,1.3,0,2.7,0,4C62.9,80.1,63,79.9,63.3,79.9z M63.4,71
			c-0.1-1.2,0.2-3.3-0.2-3.9c-0.8,0.2-0.6,1.2-0.6,2.4c0,0.7-0.1,1.4,0.2,1.6C62.9,71.4,63.2,71.1,63.4,71z M63,29.5
			c0-3.1,0-6.3,0-9.4c-0.3,0-0.8-0.5-0.9-0.1c0,3,0,6.1,0,9.1C62.4,29.3,62.6,29.5,63,29.5z M61.7,80.4c0.1-1.3,0.1-3,0-4.3
			c-0.2,0-0.5,0-0.5,0.1c-0.1,1.3-0.1,3,0,4.3C61.4,80.6,61.5,80.5,61.7,80.4z M61.7,71.4c0-1,0-2.1,0-3.1c-0.3-0.2-0.5,0.2-0.7,0.3
			c0,1,0,1.9,0,2.9C61.2,71.4,61.5,71.5,61.7,71.4z M61.3,28.8c0-3.1,0-6.3,0-9.4c-0.3-0.1-0.6-0.4-0.8-0.1c0,2.2,0,5.3,0,7.7
			C60.5,27.8,60.3,28.9,61.3,28.8z M60.3,80.8c0-1.5,0-3,0-4.5c-0.3-0.1-0.4,0.1-0.6,0.1c-0.3,1.3-0.1,3.2-0.1,4.6
			C59.8,81,60.1,80.9,60.3,80.8z M60.2,71.6c0-0.8,0.1-1.8-0.1-2.5c-0.3,0-0.5,0.2-0.7,0.3c-0.1,0.6,0,1.5-0.1,2.2
			C59.6,71.7,59.9,71.7,60.2,71.6z M59.7,28.2c0-3.1,0.1-6.3-0.1-9.3c-0.2-0.1-0.3-0.2-0.6-0.1c-0.3,2.8,0,6.1-0.1,9.1
			C59.2,28,59.3,28.2,59.7,28.2z M60.7,30.3c-0.5-0.3-1-0.6-1.7-0.7c-1.4,0.6-2.9,1.4-4.2,2c-0.5,0.2-1.1,0.3-1.3,0.8
			c1.3-0.2,2.5-0.6,3.7-0.9C58.4,31.1,59.6,30.9,60.7,30.3z M58.6,81.3c0-1.5,0.1-3.2-0.1-4.5c-0.4,0-0.6,0.1-0.8,0.3
			c0,1.4,0,2.9,0,4.3C58.1,81.5,58.4,81.4,58.6,81.3z M58.6,71.7c0-0.6,0.1-1.3-0.1-1.8c-1,0-0.9,0.9-0.8,1.9
			C58,71.9,58.4,71.9,58.6,71.7z M57.3,25.7c0,0.8-0.1,1.8,0.8,1.7c0-3,0.1-6.1-0.1-8.9c-0.3,0-0.6-0.2-0.7,0.1
			c-0.2,0.4,0,1.6,0,2.4C57.3,22.7,57.3,24.1,57.3,25.7z M57,81.7c-0.1-1.4,0.2-3.2-0.1-4.5c-0.2,0.1-0.5,0.2-0.6,0.3
			c0,1.4-0.1,2.9,0.1,4.2C56.4,81.9,56.7,81.7,57,81.7z M56.9,72c0-0.4,0-0.8,0-1.2c-0.4,0-0.5,0.1-0.8,0.2c-0.1,0.3-0.1,0.8,0,1.1
			C56.3,72.1,56.7,72,56.9,72z M56.4,26.5c0-2.8,0-5.5,0-8.3c-0.2,0-0.8-0.4-0.8,0c0,2.1,0,4.7,0,6.8C55.6,25.7,55.5,26.6,56.4,26.5
			z M55.3,72.2c0-0.3,0-0.6-0.1-0.8c-0.4-0.1-0.4,0.2-0.8,0.2c0,0.3-0.1,0.8,0.1,1C54.9,72.4,55.1,72.3,55.3,72.2z M55.3,79.9
			c0-0.7,0.2-1.5-0.2-1.9c-0.3,0-0.3,0.2-0.6,0.2c0,1.3,0,2.6,0,3.9c0.3,0,0.6,0,0.8-0.1C55.3,81.3,55.3,80.6,55.3,79.9z M55.3,27.4
			c-0.1-0.1-0.2-0.3-0.4-0.3c-0.9,1-1.8,2.3-2.2,3.5C53.6,29.6,54.6,28.6,55.3,27.4z M54,25.2c0.3,0.1,0.4,0.3,0.7,0.3
			c0-2.6,0.1-5.3-0.1-7.7c-0.2,0-0.7-0.2-0.7,0.1C54,20.4,53.9,22.9,54,25.2z M53.6,82.1c-0.1-1.1,0.2-2.5-0.1-3.4
			c-0.3,0-0.5,0.2-0.6,0.4c0.1,1-0.1,2.3,0.1,3C53.3,82.2,53.5,82.2,53.6,82.1z M53.6,72.8c0.1-0.2,0.1-0.7,0-0.9
			c-0.4,0-0.6,0.1-0.8,0.2c0,0.3,0,0.6,0,1C53.2,73.1,53.3,72.9,53.6,72.8z M53.1,24.4c0-2.2,0.1-4.6-0.1-6.7c-0.2,0-0.4-0.1-0.6,0
			c-0.2,2,0,4.3-0.1,6.4C52.6,24.2,52.9,24.5,53.1,24.4z M52.7,33.6c0.6-2.7-3.9-3-4.3-0.6c0,0.3-0.2,0.9,0.3,1.1
			c0.2-1.1,0.4-2,1.4-2.3c0.8-0.2,1.8,0.1,2.2,1C52.3,33.1,52.2,33.6,52.7,33.6z M52.7,25.7c-0.2-0.2-0.4-0.4-0.8-0.4
			c-0.3,1.6-0.7,3.5-0.8,5.1c0.6-0.6,0.6-1.5,0.8-2.3C52.3,27.3,52.6,26.5,52.7,25.7z M51.4,82.3c0.2,0,0.5,0,0.7,0
			c-0.1-0.8,0.2-1.9-0.1-2.5c-0.4,0.1-0.5,0.3-0.7,0.5C51.3,80.9,51.1,81.8,51.4,82.3z M51.3,74c0.8,0,0.9-0.9,0.7-1.7
			c-0.3,0-0.5,0.1-0.7,0.1C51.3,73,51.3,73.5,51.3,74z M50.8,22.9c0.3,0.1,0.3,0.4,0.7,0.4c0-1.9,0.1-3.9-0.1-5.6
			c-0.1-0.1-0.4,0-0.6-0.1C50.8,19.4,50.8,21.2,50.8,22.9z M50.6,79.7c0.2-1.5-0.1-3.1,0-4.8c-3.2-4.1-11.9-2-15.9-5.2
			c-0.5-0.4-0.7-0.9-1.2-1.3c-0.2,0-0.1,0.1-0.3,0.2c-1,1.1-1.8,2.8-0.7,4.2c2,2.4,6.2,2.5,10.2,3.4c2.6,0.5,4.6,1.2,6.4,2.3
			C49.6,79,50,79.6,50.6,79.7z M50.6,82.2c0-0.6,0-1.2,0-1.8c-0.3-0.2-0.4-0.6-0.9-0.6c0,0.8-0.1,1.7,0.1,2.4
			C49.9,82.3,50.4,82.3,50.6,82.2z M50.5,74c0.1-0.4,0.1-1.2,0-1.6c-0.3,0-0.5-0.1-0.8-0.1C49.4,73.2,49.7,74,50.5,74z M50.3,71.4
			c0-9.1,0-18.2,0-27.4c-8.4,0-16.9,0-25.3,0c-0.1,0,0,0.1,0,0.2c1,7.5,4.4,13.2,8.5,17.7C37.7,66.4,43.3,69.8,50.3,71.4z M50,22.9
			c0-1.7,0.1-3.6-0.1-5.3c-0.3,0-0.4,0-0.6,0.1c-0.1,1.8-0.1,4,0,5.7C49.5,23.3,49.8,23.1,50,22.9z M49.7,30.5
			c0-1.6-0.5-3.8-0.8-5.4c-1.3,0-0.4,1.9-0.1,3C49.1,29.1,49.3,30.1,49.7,30.5z M48.8,82.2c0.1-1,0-2.2,0.1-3.2
			c-0.2-0.1-0.3-0.4-0.7-0.4c0.1,1.2-0.2,2.7,0.1,3.6C48.4,82.2,48.6,82.2,48.8,82.2z M48.8,73c0-0.3,0-0.6,0-0.9
			c-0.5-0.3-1-0.2-0.8,0.6C48.2,72.8,48.4,73,48.8,73z M48.3,24.1c0-2.1,0.1-4.4-0.1-6.4c-0.2,0-0.4,0-0.6,0c-0.3,2,0,4.5-0.1,6.7
			C47.9,24.5,48.1,24.3,48.3,24.1z M48.5,31.2c-0.1-0.6-0.8-1.2-1.4-2c-0.5-0.6-1.5-2.8-2.2-1.5C46,28.9,47,30.3,48.5,31.2z
			 M46.5,82.1c0.2,0.1,0.4,0.1,0.7,0.1c0-1.4,0.1-2.9-0.1-4.1c-0.2-0.1-0.4-0.2-0.7-0.2C46.5,79.2,46.4,80.8,46.5,82.1z M47.1,72.4
			c0.1-0.2,0.1-0.5,0.1-0.8c-0.2-0.1-0.3-0.3-0.7-0.3c-0.1,0.2-0.1,0.7,0,0.9C46.7,72.4,46.8,72.3,47.1,72.4z M47.6,32.4
			c-0.3-0.4-0.9-0.6-1.5-0.8c-1.1-0.4-2.3-0.8-3.4-1.2c-0.6-0.2-1.2-0.7-1.7-0.7c-0.6,0-1.3,0.3-1.8,0.7
			C41.9,31.2,44.9,31.9,47.6,32.4z M46.7,19.6c0-0.6,0.2-1.3-0.2-1.7c-0.2,0.1-0.4,0.1-0.6,0.1c0,2.5,0,5,0,7.5
			c0.4,0.1,0.5-0.2,0.8-0.3C46.7,23.4,46.7,21.3,46.7,19.6z M45.5,81.9c0.1-1.4,0-3,0.1-4.5c-0.2-0.1-0.4-0.2-0.7-0.3
			c-0.1,1.4-0.1,3.3,0,4.7C45.1,81.9,45.3,81.9,45.5,81.9z M45.5,72c0.1-0.2,0-0.7,0.1-1c-0.2-0.1-0.4-0.3-0.8-0.3
			c-0.1,0.3-0.1,0.8,0,1.1C45,71.9,45.2,72,45.5,72z M45.1,20c0-0.8,0.2-2.3-0.6-1.8c-0.3,2.5-0.1,5.7-0.1,8.2
			c0.3,0,0.4-0.3,0.7-0.3C45.1,24.5,45.1,22,45.1,20z M43.4,34c0.8,0,1.6,0,2.3-0.3c-7.7-0.2-12.8-0.4-20.3-0.5
			c-0.2,0.2-0.3,0.8-0.2,1.1C31.4,34.3,37.7,34.1,43.4,34z M43.9,81.6c0.1-1.4,0-3.1,0.1-4.6c-0.2-0.1-0.4-0.2-0.6-0.2
			c-0.1,1.4,0,3.1-0.1,4.7C43.5,81.5,43.6,81.7,43.9,81.6z M43.9,71.8c0.1-0.4,0.1-1.1,0-1.4c-0.2-0.1-0.3-0.3-0.6-0.3
			c-0.1,0.4-0.1,1.2,0,1.6C43.5,71.7,43.6,71.8,43.9,71.8z M43.5,25.7c0-2.4,0.1-5.1-0.1-7.1c-0.2,0-0.4,0-0.5,0.1
			c-0.3,2.7,0,5.9-0.1,8.8C43.7,27.4,43.5,26.4,43.5,25.7z M42.4,81.2c0.1-1.4,0-3,0.1-4.5c-0.2-0.1-0.7-0.4-0.8-0.1
			c0,1.4-0.1,3.1,0.1,4.4C41.9,81.1,42,81.3,42.4,81.2z M42.4,71.6c0-0.7,0-1.3,0-2c-0.2-0.1-0.5-0.5-0.8-0.3
			c-0.1,0.6-0.1,1.7,0,2.3C41.9,71.5,42,71.6,42.4,71.6z M41.9,20.9c0-0.9,0.2-2.7-0.8-1.8c-0.2,2.9,0,6.1-0.1,9.1
			c0.4,0,0.6-0.2,0.8-0.3C41.9,26,41.9,23.2,41.9,20.9z M38.6,37.3c1.5-0.4,3-0.6,3.6-1.4c-2.8,0.5-5.6,0.9-8.2,1.6
			c0.3,0.5,1.1,0.7,1.6,0.6C36.4,38,37.5,37.6,38.6,37.3z M40.7,80.8c0-1.5,0-2.9,0-4.4c-0.1-0.1-0.8-0.3-0.8,0.1
			c0,1.4-0.1,2.9,0.1,4.1C40.3,80.6,40.4,80.8,40.7,80.8z M40.6,71.4c0.3-0.6,0.1-1.8,0.1-2.7c-0.2-0.2-0.5-0.4-0.7-0.5
			c-0.2,0.8-0.2,2.3,0,3.1C40.3,71.3,40.4,71.4,40.6,71.4z M39.7,28.8c0.8-0.1,0.5-1.2,0.5-2c0-1.7,0-3.3,0-5.1
			c0-0.8,0.3-2.8-0.6-2.3c-0.2,2.1-0.1,4.8-0.1,7.1C39.5,27.4,39.4,28.2,39.7,28.8z M39.1,80.2c0.1-1.3,0.1-3,0-4.2
			c-0.2,0-0.4-0.1-0.7-0.1c0,1.3-0.1,2.9,0.1,4.1C38.6,80.1,38.7,80.2,39.1,80.2z M39.1,71c0-1.1,0-2.3,0-3.4
			c-0.2-0.2-0.4-0.4-0.8-0.4c0,1.2-0.1,2.6,0.1,3.8C38.5,71.1,38.8,71.1,39.1,71z M38.7,21c0-0.3,0.2-0.9-0.2-1
			c-0.2,0-0.4,0.1-0.6,0.2c-0.2,3,0,6.2-0.1,9.3c0.3,0,0.5-0.1,0.8-0.1C38.7,26.7,38.7,23.6,38.7,21z M38.5,38.3
			c-1.3,0-2.6,0.3-3.8-0.1c-0.6-0.2-1.1-0.6-1.6-0.8c-0.6-0.3-1.2-0.6-1.8-0.7c-1.4-0.3-2.2,0.6-3,1c-1.1,0.5-2.6,0.6-3.6,1.1
			c0,0.8,0,1.6,0,2.3c2.9,0,5.8,0,8.8,0C34.6,39.6,37.4,39.8,38.5,38.3z M37.5,79.5c0-1.3,0-2.6,0-3.8c-0.2-0.1-0.6-0.3-0.8-0.1
			c0,1.2,0,2.4,0,3.6C36.9,79.4,37.1,79.6,37.5,79.5z M37.4,70.7c0-1.4,0-2.7,0-4.1c-0.2-0.2-0.4-0.5-0.8-0.5c0,1.4,0,2.9,0,4.3
			C36.9,70.5,37.1,70.7,37.4,70.7z M37,28c0-2.5,0.1-5.3-0.1-7.4c0,0-0.1,0-0.1,0c-0.2,0.1-0.3,0.2-0.5,0.3c0.1,3-0.2,6.3,0.1,9
			C37.3,30,37,28.6,37,28z M35.8,78.8c0.3-0.9,0.1-2.5,0.1-3.5c-0.2-0.1-0.3-0.2-0.6-0.2C35.3,76.1,34.6,78.6,35.8,78.8z M35.8,69.8
			c0-1.5,0-3.1,0-4.6c-0.2-0.2-0.4-0.4-0.6-0.6c-0.3,0.7-0.1,1.9-0.1,2.8c0.6,0.5,0.7,1.4,0.1,1.9C35.2,69.5,35.5,69.7,35.8,69.8z
			 M35.4,30.1c-0.1-2.9,0.2-6.1-0.1-8.7c-0.3,0.1-0.5,0.2-0.7,0.3c0,2.8,0,5.6,0,8.4C34.9,30.2,35.2,30.2,35.4,30.1z M34.5,68.9
			c0.7-0.1,0.4-1.4-0.3-1.1C33.5,68.1,34,69,34.5,68.9z M34.2,77.9c0.1-0.9,0-2.1,0.1-3.2c-0.2-0.2-0.4-0.4-0.8-0.4
			c-0.1,0.9,0,2.1-0.1,3.2C33.7,77.6,33.8,77.9,34.2,77.9z M34.1,66.8c-0.2-1.4,0.5-3.6-0.8-3.8c0,1.2,0,2.3,0,3.5
			C33.6,66.6,33.9,66.9,34.1,66.8z M33.7,30.4c0.1-2.5,0.1-5.5,0-8c0,0-0.1,0-0.1,0c-0.2,0.1-0.4,0.3-0.6,0.4c0,2.6,0,5.1,0,7.6
			C33.2,30.4,33.4,30.4,33.7,30.4z M31.8,76.4c0.2,0.2,0.4,0.4,0.8,0.4c-0.1-1.4,0.4-3.7-0.8-3.8C31.7,74,31.7,75.4,31.8,76.4z
			 M31.7,66c0.2,0.1,0.4,0.2,0.7,0.2c-0.2-1.8,0.6-4.6-0.8-5.2C31.7,62.6,31.6,64.5,31.7,66z M32,69.8c0.6-0.9,1.2-1.8,2.1-2.4
			c-1.6-1.1-4.6-0.8-5.5-2.6c0,0-0.1,0-0.1,0c-0.5,0.5-1.8,0.9-1.8,1.7c0,0.4,0.9,1.2,1.4,1.5c0.9,0.5,2.4,0.7,3.1,1.1
			C31.4,69.2,31.6,69.7,32,69.8z M32.1,30.5c0-2.4,0-4.7,0-7.1c0,0-0.1,0-0.1,0c-0.2,0.1-0.6,0.1-0.6,0.5c-0.1,2-0.1,4.5,0,6.5
			C31.6,30.4,31.8,30.5,32.1,30.5z M30.9,75.7c0-2.1,0-4.2,0-6.3c-0.2-0.1-0.4-0.3-0.7-0.3c0,2.1,0,4.1,0,6.2
			C30.4,75.4,30.6,75.7,30.9,75.7z M30.8,65.7c0-1.9,0-3.9,0-5.8c-0.2-0.3-0.4-0.7-0.7-0.8c-0.1,2,0,4.3-0.1,6.4
			C30.3,65.5,30.5,65.7,30.8,65.7z M29.7,28.1c0,0.9-0.4,2.4,0.8,2.2c0-1.9,0.1-3.9-0.1-5.6c0,0-0.1,0-0.1,0
			c-0.2,0.1-0.3,0.4-0.6,0.5C29.7,25.9,29.7,27,29.7,28.1z M29.3,74.4c0.1-1.8,0-3.8,0.1-5.6c-0.2-0.1-0.4-0.4-0.8-0.3
			c0,0.1,0,0.1,0,0.2c0,1.8,0,3.5,0,5.3C28.8,74.1,28.9,74.4,29.3,74.4z M29.2,64.7c0-2.4,0-4.7,0-7.1c-0.4-0.2-0.3-0.8-0.8-0.8
			c0,0.1,0,0.1,0,0.2c0.2,1.3-0.2,2.5,0,3.6c0.1,0.6,0.5,1,0.6,1.6C29.1,63.2,28.3,64.4,29.2,64.7z M28.8,30c0.1-1.2,0-2.7,0.1-4
			c-1,0.1-0.8,1.5-0.8,2.7C28.1,29.5,28.1,30.3,28.8,30z M27.8,64.7c1.5-0.8,0.5-2.7,0.3-4.2c-0.1,0-0.1-0.1-0.2-0.1
			C27.3,61.3,27.3,63.7,27.8,64.7z M27.7,72.9c0-1.6,0-3.2,0-4.9c-0.2-0.2-0.5-0.6-0.8-0.5C27.1,69.3,26.2,72.8,27.7,72.9z
			 M27.5,57.5c0-1.8,0.1-3.2-0.8-3.8c-0.1,2.2-0.1,5-0.1,7.2c0,0.3-0.2,0.8,0.2,0.9C27.4,60.8,27.5,59.3,27.5,57.5z M27.1,29.6
			c0.1-0.5,0.1-1.4,0-1.9c-0.6,0.2-0.8,0.7-0.7,1.6C26.6,29.4,26.8,29.5,27.1,29.6z M27.1,64.3c0.1-0.4-0.1-1.2-0.3-1.6
			C26.8,63.2,26.6,64.2,27.1,64.3z M23.9,63.4c0,1.2,2.5,3.6,3.3,1.8C26.6,64.1,25,64,23.9,63.4z M26,71.2c0-1.6,0-3.3,0-4.9
			c-0.2-0.1-0.4-0.3-0.7-0.3c-0.3,1.2-0.1,3-0.1,4.4C25.4,70.6,25.7,71.2,26,71.2z M25.8,63.7c-0.3-4.1,0.6-10.1-0.3-13.6
			c-0.1-0.3,0-0.9-0.4-0.9c0,0-0.1,0-0.1,0c-0.1,0-0.1,0.1-0.1,0.2c0,4.7,0,9.3,0,14C25.4,63.4,25.5,63.7,25.8,63.7z M25,31
			c0.1-0.6,0.4-1,0.5-1.6C24.9,29.5,24.6,30.5,25,31z M24.3,69c0.1-1.1,0-2.6,0.1-3.8c-0.4-0.4-0.6-0.8-1.1-1c0,1.2,0,2.4,0,3.6
			C23.6,68.2,23.8,68.7,24.3,69z M24.2,62.8c-0.2-10.1,0.3-20.6,0-30.7c0-0.2,0.2-0.7-0.2-0.8c0,0,0,0-0.1,0
			c-0.3,0.3-0.6,0.5-0.6,0.8c-0.2,0.9,0,2.4,0,3.6c0,8.5,0,17.8,0,25.9C23.8,61.8,23.6,62.6,24.2,62.8z M22.4,66.3
			c0-10.7,0.1-21.6-0.1-32.2c0,0-0.1,0-0.1,0c-0.1,0-0.1,0.1-0.1,0.2c-0.6,1-0.4,3-0.4,4.8c0,6.8,0,13.4,0,20.1
			c0,1.9-0.4,5.5,0.3,6.7C22.1,66,22.1,66.4,22.4,66.3z M20.8,63.4c0-8.8,0-17.5,0-26.3c0,0-0.1,0-0.1,0c-0.1,0-0.1,0.1-0.1,0.2
			c-0.2,0.4-0.4,0.6-0.5,1c-0.3,1.7,0,3.9,0,5.8c0,3.9,0,8,0,11.8C20.1,58.6,19.8,61.9,20.8,63.4z M19.3,59.3c0-5.9,0-11.8,0-17.6
			c0,0-0.1,0-0.1,0c0,0,0-0.1-0.1-0.1c0,0.1-0.1,0.1-0.1,0.2c-0.7,2.3-0.5,5.3-0.5,8.6C18.4,54,18.2,57.2,19.3,59.3z"/>
	</g>
	<g>
		<path class="st3" d="M66.7,54.7c0.2,0.7,0.2,1.3,0.7,1.6c-0.1,0.4-0.4,0.5-0.8,0.6c-0.2-0.1-0.2-0.5-0.3-0.8
			c-0.6-0.6-0.8-1.2-1.3-2.2c-0.2-0.5-0.6-1-0.7-1.4c-0.1-0.4,0-0.9-0.5-1c-0.6,0.9-1.1,1.9-2,2.5c0.1,0.8,0.7,1.2,1.1,2
			c0.3,0.5,0.4,1,0.6,1.6c0.1,0.3,0.4,0.6,0.3,1c-0.1,0.4-0.8,0.5-1.2,0.8c-0.4,0.3-0.7,0.6-1.1,0.9c-0.7,0.5-1.9,1.1-2.1,1.9
			c-0.1,0.4,0.2,0.8,0.1,1.2c-0.4,0.1-0.3-0.3-0.6-0.3c-0.4,0.5-1,1.2-1,1.9c0.2,0.2,0.8,0,1,0.1c-0.1,0.9-2,0.7-2.5,0.5
			c-0.3-0.7,0.5-1,0.8-1.4c0.5-0.6,0.6-1.4,0.9-2.2c-0.1-0.4-0.4-0.6-0.4-1.1c0.7-0.3,1.3-0.7,1.7-1.3c-0.3-1.1-0.2-2-0.3-3
			c-0.1-0.6-0.5-1.2-0.5-1.8c0-0.9,1.1-1.5,1.4-2.5c0.1-0.6,0-1,0.1-1.7c-0.6-0.1-1.3,0.4-1.8,0.6c-0.4,1.1-1.5,1.5-2.1,2.5
			c0,0.3,0.1,0.5,0,0.8c-0.2,0.3-1,0.2-1.4,0.1c-0.1-0.5,0.5-0.6,0.7-0.9c0.4-0.6,0.5-1.5,1-2.2c0.5-0.8,1.4-1.6,2.3-2.1
			c0.4-0.2,0.8-0.3,1.1-0.5c0.4-0.3,0.6-0.8,1.1-0.9c0.6-0.1,1.2,0.1,1.7,0c0.4-0.7,0.1-1.7,0.7-2.3c0.6-0.6,1.7-0.3,2.2,0.3
			c0.3,1.4-0.6,2.1-1.3,2.7c0,0.8,0.9,1,1.2,1.6c0.2,0.4,0,0.9,0.1,1.4c0,0.2,0.2,0.5,0.3,0.8c0.1,0.3,0,0.6,0.1,0.9
			C66.1,54,66.5,54.4,66.7,54.7z M61.9,58.2c-0.2-0.3-0.2-0.7-0.6-0.8c-0.1,0.3-0.1,1,0,1.2C61.5,58.6,61.8,58.5,61.9,58.2z"/>
	</g>
	<g>
		<g>
			<path class="st4" d="M48.6,59.7c0.3-0.8,0.8-1.7,0.6-2.2c-0.1-0.4-0.6-0.8-1-0.8c-0.4,0-0.7,0.4-1,0.5c-2-1-3.4-2.7-4.6-4.5
				c-0.4-0.6-1-1.2-1-2c0.7-0.1,1.4-0.2,1.9-0.6c1.1-1.3,0.7-4.2-1.2-4.5c-0.8-0.1-1.7,0.1-2.5,0.1c-2.7,0.1-5.7,0-8.4-0.5
				c-1.1-0.2-2.1-0.6-2.9-0.5c-1.2,0.1-1.1,1.4-1.6,2.1c-0.9,0-1,1.1-0.6,1.8c0.6,0.2,0.8,0.8,1.5,0.9c0.8,3.3,2.3,5.6,4,8
				c0.8,1.2,1.6,2.4,2.6,3.4c2,2,4.3,3.7,6.4,5.4c-0.3,0.6,0.1,1.2,0.6,1.2c0.4,0,0.6-0.2,1-0.3c1,0.5,1.8,1.2,3.4,1.2
				c0.8-0.4,0.6-1.3,0.9-2.3C47,64.3,47.9,61.6,48.6,59.7z"/>
		</g>
		<g>
			<path class="st5" d="M49.2,57.5c0.1,0.5-0.4,1.4-0.6,2.2c-0.7,1.9-1.6,4.6-2.1,6.3c-0.3,1.1-0.1,1.9-0.9,2.3
				c-1.6,0.1-2.3-0.7-3.4-1.2c-0.4,0.1-0.6,0.3-1,0.3c-0.6-0.1-1-0.7-0.6-1.2c-2.1-1.7-4.4-3.4-6.4-5.4c-0.9-1-1.8-2.2-2.6-3.4
				c-1.7-2.4-3.1-4.7-4-8c-0.7-0.1-0.9-0.7-1.5-0.9c-0.3-0.7-0.3-1.8,0.6-1.8c0.5-0.6,0.4-2,1.6-2.1c0.8-0.1,1.8,0.3,2.9,0.5
				c2.7,0.4,5.8,0.5,8.4,0.5c0.8,0,1.8-0.2,2.5-0.1c1.9,0.3,2.3,3.3,1.2,4.5c-0.5,0.3-1.2,0.5-1.9,0.6c-0.1,0.8,0.6,1.4,1,2
				c1.2,1.8,2.6,3.5,4.6,4.5c0.4,0,0.6-0.5,1-0.5C48.6,56.7,49.2,57.1,49.2,57.5z M48.3,59.7c0.3-0.7,1.1-2.5-0.1-2.7
				c-0.7-0.1-1.5,1-1.9,1.5c-1,0.9-2.1,2-3,2.9c-0.6,0.6-1.3,0.9-1.4,1.6c2,0.4,3.4,1.4,4.2,2.9c0.4-0.1,0.2-0.5,0.3-0.7
				c0.4-1.1,0.9-2.3,1-3.4c-0.6,0.5-0.4,1.7-1,2c0,0.6,0.3,1.1-0.5,1c-0.2-1.1,0.8-1.5,0.8-2.7c0.4-0.4,0.7-0.9,0.7-1.6
				c0.2-0.1,0.4-0.1,0.6-0.3c0.1-0.3-0.2-0.3-0.1-0.6C48.1,59.5,48.2,59.9,48.3,59.7z M47.6,61c0.2,0,0.3,0,0.3-0.2
				c-0.1,0-0.1-0.1-0.2-0.1C47.7,60.9,47.6,60.9,47.6,61z M45.5,58.7c0.5-0.4,1.1-0.7,1.3-1.3c-2.5-1.6-4.5-3.8-5.8-6.7
				c-0.1,0-0.2,0-0.2-0.1c-2.7,0.1-6.2,0.3-8.9,0.5c-0.1,0-0.2-0.1-0.3-0.2c-0.8,0.3-2.3,0.2-2.9-0.5c-0.3-0.5-0.3-1-0.8-1.5
				c0,0-0.1,0-0.1,0c0,0.1,0,0.1,0,0.2c0.9,3.7,2.8,6.7,4.8,9.4c0.5,0.7,1.1,1.5,1.6,2.1c0.4,0.4,1,0.7,1.2,1.2
				c0.8,0.6,1.5,1.3,2.4,1.9c0.8,0.6,1.5,1.5,2.5,1.8c-0.3-0.7-0.2-1.4,0.1-2c-0.1,0-0.5,0.3-0.6,0c1.3-1.3,2.9-2.2,4.1-3.6
				c-1,0.7-2.2,1.5-3.2,2.3c-0.4,0.3-0.7,1.1-1.2,0.9c0.4-0.5,1-0.9,1.6-1.4c-0.5,0.4-1.2,0.5-1.7,0.9c-0.2,0.2-0.4,0.6-0.7,0.5
				c0.1-0.5,0.6-0.7,1-0.8c1.5-1,2.9-2,4.4-3c0.5-0.3,0.9-1,1.6-0.9C45.8,58.5,45.5,58.4,45.5,58.7z M44.5,67.8
				c1,0.8,1.9-0.7,1.2-1.7c-0.6,0.1-0.5,0.7-0.7,1.2C44.9,67.5,44.5,67.5,44.5,67.8z M45.2,66c1-1-1.4-2.2-2.3-2.4
				c-0.1,0.2-0.3,0.2-0.3,0.5C43.7,64.5,44.4,65.3,45.2,66z M42.7,67.1c0.9,0.6,2.2,0.2,2.1-0.8c0-0.3-0.6-1.2-1-0.8
				c-0.1,0.4,0.2,0.5,0.1,1c-0.3,0.3-0.6,0-1.1,0.1C42.6,66.5,42.7,66.8,42.7,67.1z M44.1,59.9c0.4-0.1,0.7-0.3,0.9-0.7
				C44.6,59.3,44.3,59.5,44.1,59.9z M43.2,65.7c0.1-0.3,0.4-0.3,0.4-0.7c-0.4-0.5-0.9,0.4-1,0.9c0.2,0.2,0.5,0.4,0.8,0.3
				C43.5,65.9,43.2,65.9,43.2,65.7z M43.4,49.6c0.8-0.9,0.4-2.7-0.5-3.4c-0.9-0.7-2.3-0.2-3.6-0.1c-3.4,0.2-6.7-0.2-9.5-0.8
				c0.5,1.6,1.1,3.4,0.6,5.3c0.6,0.2,2,0,3,0c-0.2,0.3,0.2,0.2,0.3,0.3c0.1,0,0.2,0,0.1-0.1c-0.1,0-0.1-0.1-0.1-0.1
				c2-0.3,4-0.2,6.2-0.3C40.9,50.3,42.8,50.3,43.4,49.6z M41.6,65.3c-0.1-1,0.9-1.2,0.8-1.9c-1.1-0.7-2.4,0.6-1.7,1.8
				C41,65.2,41.2,65.3,41.6,65.3z M40.6,63.4c0.7-0.3,1.3-1,1.6-1.5C41.8,62.5,40.9,62.6,40.6,63.4z M29.9,50.5
				c0.3-0.3,0.6-0.9,0.5-1.4c-0.4-0.1-1.2-0.2-1.6-0.1C28.8,49.6,29,50.6,29.9,50.5z M30.2,48.7c0.2-0.2,0.2-1-0.2-1.1
				c0,0.4-0.2,0.6-0.2,1C30,48.6,30,48.8,30.2,48.7z M29.5,47.1c0.1-1-1.3-1.4-1.2-0.1C28.5,47.2,29.2,47.2,29.5,47.1z M28,46.6
				c0.1-0.7,0.7-1,1.5-1c-0.2-1.2-2.2-0.8-2,0.5C27.6,46.3,27.7,46.6,28,46.6z M29.2,48.6c0.1-0.4-0.4-0.3-0.4-0.1
				C28.9,48.6,29,48.6,29.2,48.6z"/>
		</g>
		<g>
			<path class="st4" d="M48.3,57c1.2,0.1,0.3,1.9,0.1,2.7c-0.2,0.2-0.3-0.2-0.5,0C47.8,60,48.1,60,48,60.3c-0.2,0.1-0.4,0.1-0.6,0.3
				c-0.1,0.7-0.3,1.2-0.7,1.6c0.1,1.2-1,1.5-0.8,2.7c0.7,0.1,0.4-0.5,0.5-1c0.7-0.3,0.5-1.5,1-2c-0.1,1.1-0.6,2.3-1,3.4
				c-0.1,0.2,0,0.6-0.3,0.7c-0.9-1.5-2.2-2.5-4.2-2.9c0.1-0.6,0.9-1,1.4-1.6c0.9-0.9,2-2,3-2.9C46.8,58.1,47.6,56.9,48.3,57z
				 M46.8,60.4c0.1-0.6,0.5-0.9,0.6-1.4c-0.6,0.1-0.7,0.6-0.8,1.2c-0.9,0.2-0.7,1.5-1.6,1.7c0,0.8-1.2,0.9-0.6,1.6
				c0.6,0,0.7-0.3,0.5-0.8c0.1,0,0.2-0.2,0.4-0.1c0.3-0.8,0.9-1.3,1.2-2.1C46.6,60.5,46.7,60.5,46.8,60.4z"/>
		</g>
		<g>
			<path class="st5" d="M47.4,59c-0.2,0.5-0.6,0.8-0.6,1.4c-0.1,0.1-0.2,0.1-0.3,0.1c-0.3,0.8-0.8,1.3-1.2,2.1
				c-0.2,0-0.3,0.1-0.4,0.1c0.2,0.5,0.1,0.8-0.5,0.8c-0.6-0.7,0.6-0.9,0.6-1.6c0.9-0.2,0.7-1.5,1.6-1.7C46.7,59.6,46.8,59.1,47.4,59
				z"/>
		</g>
		<g>
			<path class="st4" d="M46.8,57.4c-0.2,0.6-0.8,0.9-1.3,1.3c0-0.3,0.3-0.2,0.3-0.5c-0.7,0-1.1,0.6-1.6,0.9c-1.5,1-2.9,2-4.4,3
				c-0.5,0.2-0.9,0.3-1,0.8c0.3,0.1,0.5-0.3,0.7-0.5c0.5-0.4,1.2-0.5,1.7-0.9c-0.5,0.5-1.1,0.9-1.6,1.4c0.6,0.2,0.9-0.6,1.2-0.9
				c1-0.8,2.2-1.5,3.2-2.3c-1.2,1.4-2.8,2.3-4.1,3.6c0.2,0.3,0.6,0,0.6,0c-0.2,0.6-0.4,1.3-0.1,2c-1-0.3-1.7-1.1-2.5-1.8
				c-0.8-0.6-1.6-1.3-2.4-1.9c-0.3-0.6-0.8-0.8-1.2-1.2c-0.5-0.5-1.1-1.3-1.6-2.1c-2-2.7-3.9-5.7-4.8-9.4c0-0.1,0-0.1,0-0.2
				c0,0,0.1,0,0.1,0c0.5,0.5,0.4,1,0.8,1.5c0.5,0.7,2,0.8,2.9,0.5c0.1,0.1,0.2,0.2,0.3,0.2c2.7-0.2,6.2-0.3,8.9-0.5
				c0,0.1,0.1,0.1,0.2,0.1C42.3,53.6,44.3,55.8,46.8,57.4z M45.7,57.3c-0.2-0.3-1.1,0.1-0.8,0.4C45,57.4,45.6,57.6,45.7,57.3z
				 M44.6,57.7c-0.3,0-0.5,0.1-0.8,0.3c0.1,0,0,0.2,0.1,0.2C44.1,57.9,44.5,58,44.6,57.7z M44.4,56.6c0-0.1,0-0.2-0.1-0.2
				c-0.4,0.2-0.8,0.5-1.4,0.3C42,56.9,41,57.5,40,57.5c-0.3,0.3-0.5,0.4-1,0.4c-0.1,0.1-0.1,0.3-0.2,0.3c-0.1-0.1-0.1-0.3-0.4-0.3
				c-0.2,0.3-1,0.2-1.1,0.4c0.2,0.4,0.5,0,0.6,0c0.2,0,0.2,0.2,0.4,0.2c0.6-0.3,1.4-0.3,1.8-0.7c0.8-0.2,1.2-0.1,1.9-0.6
				c0.4,0.2,1.2-0.3,1.9-0.2c0.2-0.1,0-0.1,0.1-0.2C44,56.9,44.3,56.7,44.4,56.6z M43.7,58.2c-0.2,0,0-0.3-0.2-0.2
				c-1,0.5-2.3,1.1-3.7,1.4c0,0.2,0.2,0.2,0.2,0.5C41.1,59.2,42.4,58.9,43.7,58.2z M42.5,56c0-0.1,0.2-0.1,0.3-0.3
				c-0.6-0.3-1.3,0.2-1.9-0.1c-0.1,0.4-0.5,0.4-0.7,0.1c-0.2,0.6,0.5,0.2,0.7,0.2C41.4,55.8,42,55.8,42.5,56z M39.6,54.4
				c0.4,0.4,1.2,0.1,1.6,0.2c-0.1-0.4-0.5-0.6-0.8-0.3c-0.7-0.6-1.4,0.3-2.1,0.1c0-0.1,0-0.1,0.1-0.2c-0.3,0-0.5,0.2-0.8,0.3
				c-0.2,0-0.1-0.3-0.3-0.3c0,0.4-0.4,0.2-0.6,0.3c0,0.2-0.1,0.3-0.2,0.5c-0.2-0.2-0.6-0.2-0.8-0.4c0,0.2-0.2,0.1-0.2,0.3
				c0,0.1,0.1,0.2,0.1,0.3c0.5-0.1,0.9,0.1,1.4,0.1c0-0.2-0.1-0.4,0.1-0.5c0.4,0.3,1,0.1,1.1-0.3C38.3,54.9,39.2,54.6,39.6,54.4z
				 M39.6,51.7c0.3,0.3,0.9,0.1,1.2,0c-1-0.2-2.4-0.2-3.6-0.1c-0.2,0-0.2-0.3-0.4-0.3c-0.5,0.4-1.7,0.5-2,0.1
				c-0.4,0-0.3,0.4-0.5,0.5c-0.2-0.1-0.3,0-0.6,0l0,0v0c0,0-0.1,0-0.1,0c-0.2-0.1-0.3-0.4-0.5-0.5c-0.1,0.2-0.2,0.5-0.5,0.5
				c-0.2,0-0.2-0.4-0.5-0.2c0.2,0.1-0.1,0.1-0.1,0.3c0,0.3,0.4,0.4,0.7,0.4c0.1,0,0.1-0.2,0.2-0.3c0.1,0,0.2,0.2,0.4,0.1
				c0.2-0.1,0.3-0.2,0.3-0.4h0c0.2,0.1,0.1,0.2,0.1,0.4c0.1,0,0.3,0,0.4,0c0.2-0.1-0.1-0.2,0.1-0.3c0.3,0.2,0.6-0.2,0.9-0.2
				c0.4,0.1,1.2,0.2,1.6-0.1C37.7,51.9,38.9,52.1,39.6,51.7z M40,53.2c0-0.4-0.2-0.5-0.5-0.6c-0.2,0.2-0.5,0.3-0.8,0.4
				c-0.2,0-0.1-0.3-0.4-0.3c-0.2,0-0.2,0.2-0.5,0.2c-0.2,0-0.1-0.3-0.3-0.3c-0.3,0.1-0.7,0.4-0.9,0.4c0-0.2,0.3-0.1,0.2-0.3
				c-0.1,0-0.1-0.1-0.2-0.1c-0.2,0.3-0.4,0.4-0.7,0.6c-0.2-0.1-0.2-0.2-0.3-0.3c-0.2,0-0.2,0.2-0.3,0.2c-0.2-0.1-0.1-0.3-0.4-0.3
				c-0.1,0.1,0,0.4-0.2,0.4c-0.2-0.1-0.3-0.1-0.5,0c0,0.2,0.2,0.2,0.2,0.3c1.4,0,2.9-0.7,4.1-0.2C39.1,53.3,39.4,53.1,40,53.2z
				 M39.6,59.8C39,59.6,39,60.1,38.4,60c-0.1,0,0,0.3-0.1,0.3c-0.4-0.1-0.6-0.4-1-0.5c0,0.4-0.2,1.2,0.6,1c0.2-0.2-0.2-0.2-0.1-0.5
				c0.4,0,0.5,0.3,0.9,0.2c0-0.2-0.2-0.1-0.1-0.3c0.2,0,0.2-0.2,0.4-0.2c0.2,0,0.1,0.2,0.4,0.2C39.5,60.2,39.6,60.1,39.6,59.8z
				 M37.1,58.7c-0.1,0.4,0.6,0.3,0.5,0C37.5,58.7,37.3,58.7,37.1,58.7z M36.5,59c0.2-0.2,0.3-0.4,0.6-0.5c-0.3-0.2-0.6-0.5-1-0.6
				c0,0.3-0.1,0.5-0.5,0.5c0,0.2-0.1,0.2-0.1,0.4c0.3,0.2,0.5,0.4,0.8,0.4c0.1-0.1,0.1-0.2,0.2-0.3C36.5,58.9,36.4,59,36.5,59z"/>
		</g>
		<g>
			<path class="st5" d="M44.8,57.7c-0.2-0.3,0.7-0.7,0.8-0.4C45.6,57.6,45,57.4,44.8,57.7z"/>
		</g>
		<g>
			<path class="st4" d="M42.8,63.6c0.9,0.2,3.3,1.4,2.3,2.4c-0.7-0.8-1.5-1.5-2.6-1.9C42.6,63.8,42.7,63.8,42.8,63.6z"/>
		</g>
		<g>
			<path class="st5" d="M43.8,57.9c0.3-0.1,0.5-0.3,0.8-0.3c0,0.3-0.4,0.3-0.6,0.5C43.8,58.1,43.9,57.9,43.8,57.9z"/>
		</g>
		<g>
			<path class="st5" d="M44.2,56.4c0.1,0,0.1,0.1,0.1,0.2c-0.1,0.2-0.3,0.3-0.5,0.3c-0.1,0.1,0,0.1-0.1,0.2
				c-0.7-0.1-1.5,0.4-1.9,0.2c-0.6,0.5-1.1,0.4-1.9,0.6c-0.4,0.4-1.2,0.4-1.8,0.7c-0.2,0-0.2-0.2-0.4-0.2c-0.2,0-0.5,0.4-0.6,0
				c0.1-0.2,0.9-0.1,1.1-0.4c0.2,0,0.3,0.1,0.4,0.3c0.1-0.1,0.1-0.2,0.2-0.3c0.6,0,0.7-0.1,1-0.4c1.1,0.1,2-0.5,2.9-0.8
				C43.5,56.8,43.9,56.6,44.2,56.4z"/>
		</g>
		<g>
			<path class="st4" d="M45,59.1c-0.2,0.4-0.5,0.6-0.9,0.7C44.3,59.5,44.6,59.3,45,59.1z"/>
		</g>
		<g>
			<path class="st5" d="M43.5,58c0.2-0.1,0,0.2,0.2,0.2c-1.3,0.6-2.6,0.9-3.7,1.7c0-0.2-0.2-0.2-0.2-0.5
				C41.1,59.1,42.5,58.5,43.5,58z"/>
		</g>
		<g>
			<path class="st4" d="M43,46.2c0.8,0.6,1.2,2.5,0.5,3.4c-0.6,0.8-2.5,0.8-3.6,0.8c-2.1,0.1-4.1,0-6.2,0.3c0.1,0,0.1,0.1,0.1,0.1
				c0.1,0,0,0.1-0.1,0.1c-0.1-0.1-0.5,0-0.3-0.3c-1,0-2.4,0.2-3,0c0.5-1.9-0.1-3.7-0.6-5.3c2.9,0.6,6.2,1,9.5,0.8
				C40.6,46,42,45.5,43,46.2z M42,49.3c0.2,0,0.6-0.1,0.7-0.3c-0.4-0.3-1.1,0-1.4-0.3c-0.2,0.3-0.4,0.2-0.7,0.1
				c-0.7,0.5-2,0.3-3.3,0.4c-0.1-0.1-0.1-0.2-0.2-0.3c-0.8,0.3-1.8,0-2.5,0.3c-0.2,0-0.2-0.2-0.3-0.4c-0.3,0-0.2,0.3-0.5,0.3
				c-0.5-0.3-1.1,0.1-1.6,0.1c0,0.2,0,0.5-0.1,0.6c1.3-0.7,2.8-0.1,4.5-0.5c0.2,0,0.2,0.3,0.5,0.3c0.3,0,0.4-0.2,0.6-0.3
				c0.3,0.1,0.6,0.1,0.9,0.3C39.8,49.2,40.9,49.4,42,49.3z M42.4,47.2c0.1-0.2,0.1-0.5-0.1-0.5c-0.3,0.1-0.8,0-1.4-0.1
				c-0.1,0.1,0,0.3-0.2,0.3c-0.2-0.1-0.2-0.3-0.5-0.3c-0.2,0-0.1,0.4-0.3,0.4c-0.6-0.1-1.2-0.1-1.8-0.4c-0.4,0.5-1,0.1-1.4,0.3
				c-0.1,0-0.1-0.1-0.1-0.2c-0.6,0.2-1.5,0.2-2.1-0.1c-0.2,0.5-1.1,0.1-1.4,0.1c0,0.2-0.1,0.2-0.1,0.4c0.5,0.2,1.3-0.1,1.6,0.3
				c0.5-0.3,1.4-0.2,1.9,0.1c1-0.5,2.3-0.2,3.5-0.1c0.2-0.2,0.6-0.3,0.9-0.5C41.3,47.4,42,47,42.4,47.2z M32.6,47.3
				c0.4,0.1,0.4-0.4,0.1-0.5C32.6,46.9,32.6,47.1,32.6,47.3z M32.1,48.7c0,0.2,0.2,0.1,0.4,0.1c-0.1-0.5-0.4-0.2-0.8-0.3
				c-0.3,0.8,0.3,1.7,0.5,0.9c-0.2-0.1-0.3-0.3-0.3-0.6C32,48.8,32,48.7,32.1,48.7z M31.5,47.7c0.2-0.1,0.9,0.1,0.8-0.4
				c-0.2-0.3-0.4,0.2-0.6,0c0.1-0.4,0.8-0.4,0.5-1C31.2,45.7,31.1,47.2,31.5,47.7z"/>
		</g>
		<g>
			<path class="st5" d="M42.8,55.6c0,0.2-0.2,0.2-0.3,0.3c-0.5-0.1-1.1-0.1-1.6-0.1c-0.2,0-0.9,0.4-0.7-0.2c0.2,0.2,0.6,0.2,0.7-0.1
				C41.5,55.9,42.1,55.3,42.8,55.6z"/>
		</g>
		<g>
			<path class="st5" d="M42.8,49c-0.1,0.2-0.5,0.3-0.7,0.3c-1.1,0.1-2.3-0.1-3.3,0.3c-0.3-0.1-0.6-0.2-0.9-0.3
				c-0.3,0-0.3,0.3-0.6,0.3c-0.3,0-0.3-0.2-0.5-0.3c-1.7,0.4-3.2-0.3-4.5,0.5c0-0.1,0.1-0.3,0.1-0.6c0.5,0,1.1-0.4,1.6-0.1
				c0.2,0,0.2-0.3,0.5-0.3c0.1,0.1,0.1,0.4,0.3,0.4c0.7-0.3,1.7,0,2.5-0.3c0.1,0.1,0.1,0.2,0.2,0.3c1.3-0.1,2.6,0.1,3.3-0.4
				c0.3,0.1,0.5,0.2,0.7-0.1C41.7,48.9,42.4,48.7,42.8,49z"/>
		</g>
		<g>
			<path class="st4" d="M42.4,63.4c0,0.7-1,0.9-0.8,1.9c-0.3,0-0.6-0.1-0.8-0.1C40.1,64.1,41.3,62.7,42.4,63.4z"/>
		</g>
		<g>
			<path class="st5" d="M42.2,46.7c0.3,0,0.2,0.4,0.1,0.5C42,47,41.3,47.4,41,47c-0.3,0.1-0.7,0.2-0.9,0.5c-1.2-0.1-2.5-0.4-3.5,0.1
				c-0.5-0.2-1.5-0.3-1.9-0.1c-0.3-0.3-1.2-0.1-1.6-0.3c0-0.2,0.1-0.2,0.1-0.4c0.3,0,1.1,0.4,1.4-0.1c0.6,0.4,1.6,0.3,2.1,0.1
				c0.1,0.1,0,0.2,0.1,0.2c0.5-0.2,1.1,0.1,1.4-0.3c0.5,0.3,1.1,0.3,1.8,0.4c0.2,0,0.1-0.3,0.3-0.4c0.3,0,0.3,0.2,0.5,0.3
				c0.2,0,0.1-0.2,0.2-0.3C41.4,46.7,41.9,46.8,42.2,46.7z"/>
		</g>
		<g>
			<path class="st4" d="M42.2,61.9c-0.3,0.5-0.9,1.2-1.6,1.5C40.9,62.6,41.8,62.5,42.2,61.9z"/>
		</g>
		<g>
			<path class="st5" d="M41.1,54.6c-0.4-0.1-1.2,0.2-1.6-0.2c-0.4,0.2-1.3,0.5-1.6,0c-0.1,0.4-0.7,0.5-1.1,0.3
				c-0.2,0-0.1,0.3-0.1,0.5c-0.5,0-0.9-0.1-1.4-0.1c0-0.1-0.1-0.2-0.1-0.3c0-0.2,0.2-0.2,0.2-0.3c0.3,0.1,0.6,0.2,0.8,0.4
				c0.1-0.1,0.2-0.3,0.2-0.5c0.2-0.1,0.6,0.1,0.6-0.3c0.2,0,0.1,0.3,0.3,0.3c0.3,0,0.5-0.2,0.8-0.3c0,0.1-0.1,0.1-0.1,0.2
				c0.8,0.1,1.5-0.8,2.1-0.1C40.6,54,41.1,54.2,41.1,54.6z"/>
		</g>
		<g>
			<path class="st5" d="M40.8,51.7c-0.2,0.1-0.9,0.3-1.2,0c-0.7,0.4-1.9,0.2-2.9,0.1c-0.4,0.2-1.2,0.2-1.6,0.1
				c-0.3,0-0.6,0.4-0.9,0.2c-0.2,0.1,0.1,0.2-0.1,0.3c-0.1,0-0.3,0-0.4,0c-0.1-0.1,0-0.2-0.1-0.4c0.2,0,0.4-0.1,0.6,0
				c0.2-0.1,0.1-0.5,0.5-0.5c0.3,0.4,1.6,0.3,2-0.1c0.2,0,0.2,0.2,0.4,0.3C38.4,51.5,39.8,51.5,40.8,51.7z"/>
		</g>
		<g>
			<path class="st5" d="M39.5,52.6c0.2,0.1,0.5,0.2,0.5,0.6c-0.6,0-0.8,0.2-1.5,0.2c-1.2-0.5-2.8,0.2-4.1,0.2c0-0.2-0.2-0.1-0.2-0.3
				c0.2-0.1,0.3-0.1,0.5,0c0.2,0,0.1-0.3,0.2-0.4c0.2,0,0.2,0.2,0.4,0.3c0.2,0,0.1-0.2,0.3-0.2c0.2,0,0.1,0.2,0.3,0.3
				c0.3-0.1,0.5-0.3,0.7-0.6c0.1,0,0.1,0.1,0.2,0.1c0.1,0.2-0.2,0.1-0.2,0.3c0.2,0,0.6-0.3,0.9-0.4c0.2,0,0.1,0.2,0.3,0.3
				c0.2,0,0.2-0.2,0.5-0.2c0.3,0,0.2,0.3,0.4,0.3C39,52.9,39.3,52.8,39.5,52.6z"/>
		</g>
		<g>
			<path class="st5" d="M38.4,60c0.6,0.1,0.6-0.4,1.2-0.2c0,0.3-0.2,0.4-0.4,0.5c-0.2,0.1-0.2-0.2-0.4-0.2c-0.2,0-0.2,0.2-0.4,0.2
				c0,0.2,0.2,0.1,0.1,0.3c-0.4,0.1-0.5-0.1-0.9-0.2c-0.1,0.3,0.3,0.3,0.1,0.5c-0.8,0.1-0.6-0.6-0.6-1c0.4,0.1,0.6,0.4,1,0.5
				C38.4,60.3,38.3,60,38.4,60z"/>
		</g>
		<g>
			<path class="st5" d="M37.6,58.7c0.1,0.3-0.6,0.4-0.5,0C37.3,58.7,37.5,58.7,37.6,58.7z"/>
		</g>
		<g>
			<path class="st5" d="M37.1,58.5c-0.2,0.1-0.4,0.3-0.6,0.5c-0.1,0,0-0.1,0-0.2c-0.1,0-0.1,0.2-0.2,0.3c-0.4,0-0.6-0.2-0.8-0.4
				c0-0.2,0.1-0.2,0.1-0.4c0.4,0,0.5-0.2,0.5-0.5C36.5,58,36.7,58.3,37.1,58.5z"/>
		</g>
		<g>
			<path class="st5" d="M33.6,52c0,0,0.1,0,0.1,0c0,0.2-0.1,0.3-0.3,0.4c-0.2,0-0.3-0.1-0.4-0.1c-0.1,0.1-0.1,0.2-0.2,0.3
				c-0.4,0-0.7-0.1-0.7-0.4c0-0.2,0.2-0.2,0.1-0.3c0.2-0.2,0.3,0.2,0.5,0.2c0.3-0.1,0.4-0.3,0.5-0.5C33.3,51.6,33.4,51.8,33.6,52z"
				/>
		</g>
		<g>
			<path class="st5" d="M32.6,46.8c0.3,0,0.3,0.5-0.1,0.5C32.6,47.1,32.6,46.9,32.6,46.8z"/>
		</g>
		<g>
			<path class="st5" d="M32.5,48.8c-0.2,0-0.4,0-0.4-0.1c-0.1,0-0.1,0.1-0.2,0.1c0,0.3,0.1,0.5,0.3,0.6c-0.2,0.8-0.9-0.2-0.5-0.9
				C32,48.6,32.4,48.4,32.5,48.8z"/>
		</g>
		<g>
			<path class="st5" d="M32.3,47.3c0.1,0.5-0.5,0.2-0.8,0.4c-0.4-0.5-0.3-2,0.6-1.4c0.3,0.6-0.4,0.6-0.5,1
				C31.8,47.5,32.1,47,32.3,47.3z M31.9,46.8c0-0.2,0-0.4-0.2-0.3c0,0.1-0.2,0.1-0.1,0.3C31.7,46.8,31.8,46.8,31.9,46.8z"/>
		</g>
	</g>
	<g>
		<g>
			<path class="st2" d="M29.1,77.4l-3.1,4.1l2.4,1.9l-0.7,0.9l-3.5-2.7l3.9-5L29.1,77.4z"/>
		</g>
		<g>
			<path class="st2" d="M34.9,81.1L34,87.8l-1.3-0.7l0.2-1.5l-2.1-1.1l-1.1,1l-1.2-0.7l5.1-4.4L34.9,81.1z M33.1,84.6l0.4-2.4l0,0
				l-1.8,1.7L33.1,84.6z"/>
		</g>
		<g>
			<path class="st2" d="M43.2,85.8c0-0.1-0.1-0.3-0.2-0.4c-0.1-0.1-0.2-0.2-0.4-0.3c-0.1-0.1-0.3-0.2-0.5-0.2
				c-0.3-0.1-0.6-0.1-0.8,0c-0.2,0.1-0.5,0.2-0.6,0.3c-0.2,0.2-0.3,0.4-0.5,0.6c-0.1,0.2-0.2,0.5-0.3,0.8c-0.1,0.3-0.1,0.5-0.1,0.8
				c0,0.3,0,0.5,0.1,0.7c0.1,0.2,0.2,0.4,0.4,0.6c0.2,0.2,0.4,0.3,0.7,0.4c0.4,0.1,0.8,0.1,1.1-0.1c0.3-0.2,0.5-0.5,0.7-0.9l1.3,0.3
				c-0.1,0.4-0.3,0.7-0.5,1c-0.2,0.3-0.5,0.5-0.8,0.7c-0.3,0.2-0.6,0.3-0.9,0.3c-0.3,0-0.7,0-1.1-0.1c-0.5-0.1-0.9-0.3-1.2-0.6
				c-0.3-0.3-0.6-0.6-0.8-0.9c-0.2-0.3-0.3-0.7-0.3-1.2c0-0.4,0-0.9,0.1-1.3c0.1-0.5,0.3-0.9,0.5-1.2c0.2-0.4,0.5-0.7,0.8-0.9
				c0.3-0.2,0.7-0.4,1.1-0.5c0.4-0.1,0.9-0.1,1.3,0.1c0.3,0.1,0.6,0.2,0.9,0.4c0.3,0.2,0.5,0.4,0.7,0.6c0.2,0.2,0.3,0.5,0.4,0.8
				c0.1,0.3,0.1,0.7,0.1,1l-1.3-0.3C43.3,86.1,43.3,86,43.2,85.8z"/>
		</g>
		<g>
			<path class="st2" d="M49.4,84.8c0.3,0,0.5,0.1,0.8,0.2c0.2,0.1,0.4,0.2,0.6,0.4c0.2,0.2,0.3,0.4,0.3,0.6c0.1,0.2,0.1,0.4,0.1,0.7
				c0,0.4-0.1,0.7-0.3,1c-0.2,0.3-0.4,0.5-0.8,0.6l0,0c0.2,0.1,0.3,0.1,0.4,0.2c0.1,0.1,0.2,0.2,0.3,0.4c0.1,0.1,0.1,0.3,0.1,0.4
				c0,0.2,0,0.3,0,0.5c0,0.1,0,0.2,0,0.4c0,0.1,0,0.3,0,0.4c0,0.1,0,0.3,0,0.4c0,0.1,0.1,0.2,0.1,0.3l-1.4-0.1
				c-0.1-0.2-0.1-0.4-0.1-0.7c0-0.3,0-0.5,0-0.8c0-0.3-0.1-0.6-0.3-0.7c-0.1-0.2-0.4-0.3-0.7-0.3l-1.4-0.1L47,91L45.6,91l0.3-6.3
				L49.4,84.8z M48.7,87.7c0.3,0,0.6,0,0.7-0.2c0.2-0.1,0.3-0.4,0.3-0.7c0-0.3-0.1-0.5-0.2-0.7c-0.2-0.1-0.4-0.2-0.7-0.2l-1.5-0.1
				l-0.1,1.8L48.7,87.7z"/>
		</g>
		<g>
			<path class="st2" d="M52.4,86.8c0.1-0.4,0.2-0.8,0.5-1.1c0.2-0.3,0.5-0.6,0.9-0.8c0.4-0.2,0.8-0.4,1.3-0.4c0.5-0.1,0.9,0,1.3,0.1
				c0.4,0.1,0.8,0.3,1.1,0.6c0.3,0.3,0.6,0.6,0.7,1c0.2,0.4,0.3,0.8,0.4,1.3c0.1,0.5,0,0.9,0,1.3c-0.1,0.4-0.2,0.8-0.5,1.1
				c-0.2,0.3-0.5,0.6-0.9,0.8c-0.4,0.2-0.8,0.4-1.3,0.4c-0.5,0.1-0.9,0-1.3-0.1c-0.4-0.1-0.8-0.3-1.1-0.6c-0.3-0.3-0.6-0.6-0.7-0.9
				c-0.2-0.4-0.3-0.8-0.4-1.2C52.3,87.6,52.4,87.2,52.4,86.8z M54,88.7c0.1,0.2,0.2,0.5,0.4,0.6c0.2,0.2,0.4,0.3,0.6,0.4
				c0.2,0.1,0.5,0.1,0.8,0.1c0.3,0,0.6-0.1,0.8-0.3c0.2-0.1,0.4-0.3,0.5-0.5c0.1-0.2,0.2-0.5,0.2-0.7c0-0.3,0-0.5,0-0.8
				c0-0.3-0.1-0.5-0.2-0.8c-0.1-0.2-0.2-0.5-0.4-0.6c-0.2-0.2-0.4-0.3-0.6-0.4c-0.2-0.1-0.5-0.1-0.8-0.1c-0.3,0-0.6,0.1-0.8,0.3
				c-0.2,0.1-0.4,0.3-0.5,0.6c-0.1,0.2-0.2,0.5-0.2,0.7c0,0.3,0,0.5,0,0.8C53.8,88.2,53.9,88.4,54,88.7z"/>
		</g>
		<g>
			<path class="st2" d="M61.4,88c0.1,0.1,0.3,0.2,0.4,0.2c0.1,0,0.3,0.1,0.5,0.1c0.2,0,0.4,0,0.5-0.1c0.1,0,0.2-0.1,0.4-0.2
				c0.1-0.1,0.2-0.1,0.3-0.2c0.1-0.1,0.2-0.2,0.2-0.3c0-0.1,0-0.3,0-0.4c-0.1-0.2-0.1-0.3-0.3-0.3c-0.1-0.1-0.3-0.1-0.5-0.1
				c-0.2,0-0.4,0-0.6,0c-0.2,0-0.5,0-0.7,0c-0.2,0-0.5,0-0.7,0c-0.2,0-0.5-0.1-0.7-0.1c-0.2-0.1-0.4-0.2-0.6-0.3
				c-0.2-0.2-0.3-0.4-0.4-0.7c-0.1-0.3-0.1-0.6-0.1-0.9c0.1-0.3,0.2-0.5,0.3-0.7c0.2-0.2,0.4-0.4,0.6-0.6c0.2-0.2,0.5-0.3,0.8-0.4
				c0.3-0.1,0.6-0.2,0.9-0.2c0.3,0,0.6,0,0.9,0.1c0.3,0.1,0.5,0.2,0.7,0.4c0.2,0.2,0.4,0.5,0.5,0.8l-1.3,0.4
				c-0.1-0.2-0.2-0.3-0.3-0.4c-0.1-0.1-0.2-0.2-0.3-0.2c-0.1,0-0.3,0-0.4,0c-0.1,0-0.3,0.1-0.5,0.1c-0.1,0-0.2,0.1-0.3,0.1
				c-0.1,0.1-0.2,0.1-0.3,0.2c-0.1,0.1-0.1,0.2-0.1,0.3c0,0.1,0,0.2,0,0.3c0,0.1,0.1,0.2,0.2,0.3c0.1,0.1,0.2,0.1,0.3,0.1
				c0.2,0,0.4,0,0.6,0c0.3,0,0.6,0,1-0.1c0.1,0,0.3,0,0.5,0c0.2,0,0.4,0,0.7,0.1c0.2,0.1,0.5,0.2,0.7,0.3c0.2,0.2,0.4,0.4,0.5,0.8
				c0.1,0.3,0.1,0.5,0.1,0.8c0,0.3-0.1,0.5-0.3,0.8c-0.2,0.2-0.4,0.5-0.7,0.7c-0.3,0.2-0.6,0.4-1,0.5c-0.3,0.1-0.7,0.2-1,0.2
				c-0.3,0-0.7,0-1-0.1c-0.3-0.1-0.6-0.3-0.8-0.5c-0.2-0.2-0.4-0.5-0.5-0.9l1.3-0.4C61.2,87.8,61.3,87.9,61.4,88z"/>
		</g>
		<g>
			<path class="st2" d="M67.4,85.7c0.1,0.1,0.3,0.2,0.4,0.2c0.2,0,0.3,0,0.5,0c0.2,0,0.3-0.1,0.5-0.2c0.1-0.1,0.2-0.1,0.3-0.2
				c0.1-0.1,0.2-0.2,0.3-0.3c0.1-0.1,0.1-0.2,0.2-0.4c0-0.1,0-0.3-0.1-0.4c-0.1-0.2-0.2-0.2-0.3-0.3c-0.1,0-0.3-0.1-0.5,0
				c-0.2,0-0.4,0.1-0.6,0.1c-0.2,0.1-0.5,0.1-0.7,0.2c-0.2,0.1-0.5,0.1-0.7,0.1c-0.2,0-0.5,0-0.7,0c-0.2,0-0.4-0.1-0.6-0.3
				c-0.2-0.1-0.4-0.3-0.5-0.6c-0.2-0.3-0.2-0.6-0.2-0.8c0-0.3,0.1-0.5,0.2-0.8c0.1-0.2,0.3-0.5,0.5-0.7c0.2-0.2,0.4-0.4,0.7-0.5
				c0.3-0.2,0.6-0.3,0.9-0.3c0.3-0.1,0.6-0.1,0.9-0.1c0.3,0,0.5,0.1,0.8,0.3c0.2,0.2,0.4,0.4,0.6,0.7l-1.2,0.6
				c-0.1-0.2-0.2-0.3-0.3-0.4c-0.1-0.1-0.2-0.1-0.4-0.1c-0.1,0-0.3,0-0.4,0c-0.1,0-0.3,0.1-0.4,0.2c-0.1,0.1-0.2,0.1-0.3,0.2
				c-0.1,0.1-0.2,0.2-0.2,0.3C66,82.4,66,82.5,66,82.6c0,0.1,0,0.2,0.1,0.3c0.1,0.1,0.1,0.2,0.2,0.2c0.1,0,0.2,0.1,0.3,0.1
				c0.2,0,0.4,0,0.6-0.1c0.2-0.1,0.6-0.1,1-0.2c0.1,0,0.3-0.1,0.5-0.1c0.2,0,0.4-0.1,0.7,0c0.2,0,0.5,0.1,0.7,0.2
				c0.2,0.1,0.4,0.4,0.6,0.7c0.1,0.3,0.2,0.5,0.2,0.8c0,0.3,0,0.5-0.1,0.8c-0.1,0.3-0.3,0.5-0.5,0.8c-0.2,0.2-0.6,0.5-0.9,0.7
				c-0.3,0.2-0.6,0.3-1,0.4c-0.3,0.1-0.6,0.1-1,0c-0.3,0-0.6-0.2-0.9-0.3c-0.3-0.2-0.5-0.4-0.7-0.8l1.2-0.6
				C67.2,85.5,67.3,85.6,67.4,85.7z"/>
		</g>
		<g>
			<path class="st2" d="M73,76.4l0.7,0.9l-2.7,2l0.8,1.1l2.4-1.9l0.7,0.9l-2.4,1.8l0.9,1.2l2.7-2.1l0.7,0.9L73,84.3l-3.8-5L73,76.4z
				"/>
		</g>
	</g>
	<g>
		<g>
			<g>
				<path class="st2" d="M67.7,20.4l1.1-4.3l0,0l-3,3.3l-1.2-0.7l1.5-6.4l1.2,0.7l-1.1,4.3l0,0l3-3.3l1.1,0.6L69.2,19l0,0l3-3.4
					l1.2,0.6l-4.5,4.8L67.7,20.4z"/>
			</g>
			<g>
				<path class="st2" d="M75.5,18.1l-3.8,5.1l-1.1-0.8l3.8-5.1L75.5,18.1z"/>
			</g>
			<g>
				<path class="st2" d="M74.4,23.4c0,0.2-0.1,0.3,0,0.5c0,0.2,0.1,0.3,0.2,0.5c0.1,0.1,0.2,0.3,0.3,0.4c0.1,0.1,0.2,0.2,0.3,0.3
					c0.1,0.1,0.2,0.1,0.4,0.2c0.1,0,0.3,0.1,0.4,0c0.1,0,0.3-0.1,0.4-0.2c0.1-0.1,0.2-0.3,0.2-0.4c0-0.2,0-0.3-0.1-0.5
					c-0.1-0.2-0.2-0.4-0.3-0.5c-0.1-0.2-0.3-0.4-0.4-0.6c-0.1-0.2-0.2-0.4-0.4-0.6c-0.1-0.2-0.2-0.4-0.2-0.7c0-0.2,0-0.4,0-0.7
					c0.1-0.2,0.2-0.4,0.4-0.6c0.2-0.2,0.5-0.4,0.7-0.5c0.3-0.1,0.5-0.1,0.8-0.1c0.3,0,0.5,0.1,0.8,0.3c0.3,0.1,0.5,0.3,0.7,0.5
					c0.2,0.2,0.4,0.5,0.6,0.7c0.2,0.3,0.3,0.5,0.3,0.8c0.1,0.3,0,0.6,0,0.8c-0.1,0.3-0.2,0.6-0.5,0.8l-1-0.9
					c0.1-0.1,0.2-0.3,0.2-0.4c0-0.1,0-0.3,0-0.4c0-0.1-0.1-0.3-0.2-0.4c-0.1-0.1-0.2-0.2-0.3-0.4c-0.1-0.1-0.2-0.1-0.3-0.2
					C77.4,21,77.3,21,77.2,21c-0.1,0-0.2,0-0.3,0c-0.1,0-0.2,0.1-0.3,0.2c-0.1,0.1-0.1,0.2-0.2,0.3c0,0.1,0,0.2,0.1,0.3
					c0.1,0.1,0.1,0.3,0.3,0.5c0.1,0.2,0.3,0.5,0.5,0.8c0.1,0.1,0.2,0.2,0.3,0.4c0.1,0.2,0.2,0.4,0.2,0.6c0.1,0.2,0.1,0.5,0,0.8
					c0,0.3-0.2,0.5-0.4,0.8c-0.2,0.2-0.4,0.4-0.7,0.5c-0.3,0.1-0.5,0.1-0.8,0.1c-0.3,0-0.6-0.1-0.9-0.3c-0.3-0.2-0.6-0.4-0.9-0.7
					c-0.3-0.2-0.5-0.5-0.6-0.8c-0.2-0.3-0.3-0.6-0.4-0.9c-0.1-0.3,0-0.6,0-0.9c0.1-0.3,0.3-0.6,0.5-0.9l1,0.9
					C74.6,23,74.5,23.2,74.4,23.4z"/>
			</g>
			<g>
				<path class="st2" d="M82.7,28.1c0.1-0.1,0.1-0.3,0.1-0.5c0-0.2,0-0.3-0.1-0.5c0-0.2-0.1-0.3-0.2-0.4c-0.2-0.3-0.4-0.4-0.6-0.5
					c-0.2-0.1-0.5-0.1-0.7-0.1c-0.2,0-0.5,0.1-0.7,0.2c-0.2,0.1-0.5,0.2-0.7,0.4c-0.2,0.2-0.4,0.3-0.6,0.5c-0.2,0.2-0.3,0.4-0.4,0.6
					c-0.1,0.2-0.1,0.5-0.1,0.7c0,0.2,0.1,0.5,0.3,0.7c0.3,0.3,0.6,0.5,0.9,0.6c0.4,0,0.7,0,1.1-0.3l0.8,1.1c-0.3,0.2-0.7,0.3-1,0.4
					c-0.3,0.1-0.7,0.1-1,0c-0.3-0.1-0.6-0.2-0.9-0.4c-0.3-0.2-0.5-0.4-0.8-0.8c-0.3-0.4-0.5-0.8-0.6-1.2c-0.1-0.4-0.1-0.8,0-1.2
					c0.1-0.4,0.2-0.8,0.5-1.1c0.2-0.4,0.5-0.7,0.9-0.9c0.4-0.3,0.8-0.5,1.2-0.6c0.4-0.1,0.8-0.2,1.2-0.1c0.4,0,0.8,0.2,1.2,0.4
					c0.4,0.2,0.7,0.5,1,0.9c0.2,0.3,0.4,0.6,0.5,0.9c0.1,0.3,0.2,0.6,0.1,0.9c0,0.3-0.1,0.6-0.2,0.9c-0.1,0.3-0.3,0.6-0.6,0.8
					l-0.8-1.1C82.5,28.4,82.6,28.2,82.7,28.1z"/>
			</g>
			<g>
				<path class="st2" d="M84.2,30.7c0.4,0,0.8,0,1.2,0.1c0.4,0.1,0.7,0.3,1.1,0.6c0.3,0.3,0.6,0.6,0.8,1.1c0.2,0.4,0.3,0.9,0.3,1.3
					c0,0.4-0.1,0.8-0.2,1.2c-0.2,0.4-0.4,0.7-0.7,1c-0.3,0.3-0.7,0.6-1.1,0.8c-0.4,0.2-0.8,0.3-1.3,0.4c-0.4,0-0.8,0-1.2-0.1
					c-0.4-0.1-0.7-0.3-1-0.6c-0.3-0.3-0.6-0.6-0.8-1.1C81.1,34.8,81,34.4,81,34c0-0.4,0-0.8,0.2-1.2c0.2-0.4,0.4-0.7,0.7-1
					c0.3-0.3,0.7-0.6,1.1-0.8C83.3,30.9,83.8,30.7,84.2,30.7z M82.9,32.7c-0.2,0.2-0.4,0.4-0.5,0.6c-0.1,0.2-0.2,0.4-0.2,0.7
					c0,0.2,0,0.5,0.2,0.8c0.1,0.3,0.3,0.5,0.5,0.6c0.2,0.1,0.4,0.2,0.7,0.3c0.2,0,0.5,0,0.7,0c0.3-0.1,0.5-0.1,0.7-0.3
					c0.2-0.1,0.5-0.3,0.7-0.4c0.2-0.2,0.4-0.4,0.5-0.6c0.1-0.2,0.2-0.4,0.2-0.7c0-0.2,0-0.5-0.2-0.8c-0.1-0.3-0.3-0.5-0.5-0.6
					C85.5,32.1,85.3,32,85,32c-0.2,0-0.5,0-0.8,0c-0.3,0.1-0.5,0.1-0.8,0.3C83.3,32.4,83.1,32.6,82.9,32.7z"/>
			</g>
			<g>
				<path class="st2" d="M89.5,38.4L86,42l0,0l4.1-1.1l0.3,1.3l-6.1,1.6L84,42.5l3.4-3.6l0,0l-4.1,1.1L83,38.7l6.1-1.6L89.5,38.4z"
					/>
			</g>
			<g>
				<path class="st2" d="M86.1,45.7c-0.1,0.1-0.3,0.2-0.3,0.3c-0.1,0.1-0.1,0.3-0.2,0.5c0,0.2,0,0.4,0,0.5c0,0.1,0,0.3,0.1,0.4
					c0,0.1,0.1,0.3,0.2,0.4c0.1,0.1,0.2,0.2,0.3,0.3c0.1,0.1,0.2,0.1,0.4,0.1c0.2,0,0.3-0.1,0.4-0.2c0.1-0.1,0.2-0.3,0.2-0.5
					c0.1-0.2,0.1-0.4,0.1-0.6c0-0.2,0.1-0.5,0.1-0.7c0-0.2,0.1-0.5,0.2-0.7c0.1-0.2,0.2-0.4,0.3-0.6c0.1-0.2,0.3-0.3,0.5-0.5
					c0.2-0.1,0.4-0.2,0.7-0.2c0.3,0,0.6,0,0.9,0.1c0.3,0.1,0.5,0.3,0.6,0.5c0.2,0.2,0.3,0.5,0.4,0.7c0.1,0.3,0.2,0.6,0.2,0.8
					c0,0.3,0,0.6,0,1c0,0.3-0.1,0.6-0.3,0.8c-0.1,0.2-0.3,0.5-0.6,0.6c-0.2,0.2-0.5,0.3-0.9,0.3l-0.1-1.3c0.2,0,0.3-0.1,0.5-0.2
					c0.1-0.1,0.2-0.2,0.3-0.3c0.1-0.1,0.1-0.3,0.1-0.4c0-0.1,0-0.3,0-0.5c0-0.1,0-0.2-0.1-0.3c0-0.1-0.1-0.2-0.1-0.3
					c-0.1-0.1-0.1-0.2-0.2-0.2c-0.1-0.1-0.2-0.1-0.3-0.1c-0.1,0-0.2,0-0.3,0.1c-0.1,0.1-0.1,0.2-0.2,0.3c-0.1,0.1-0.1,0.3-0.1,0.6
					c0,0.2-0.1,0.6-0.2,1c0,0.1,0,0.3-0.1,0.5c0,0.2-0.1,0.4-0.2,0.6c-0.1,0.2-0.3,0.4-0.5,0.6c-0.2,0.2-0.5,0.3-0.8,0.3
					c-0.3,0-0.6,0-0.8-0.1c-0.3-0.1-0.5-0.2-0.7-0.4c-0.2-0.2-0.4-0.5-0.5-0.8c-0.1-0.3-0.2-0.7-0.2-1.1c0-0.3,0-0.7,0-1
					c0.1-0.3,0.2-0.6,0.3-0.9c0.2-0.3,0.4-0.5,0.6-0.7c0.3-0.2,0.6-0.3,1-0.3l0.1,1.3C86.5,45.6,86.3,45.6,86.1,45.7z"/>
			</g>
			<g>
				<path class="st2" d="M91.4,51.9l-6.3-0.2l0-1.4l6.3,0.2L91.4,51.9z"/>
			</g>
			<g>
				<path class="st2" d="M91.2,55.1l-4.6,1.9l0,0l4.2,0.7L90.6,59l-6.2-1l0.2-1.4l4.6-1.9l0,0l-4.2-0.7l0.2-1.3l6.2,1L91.2,55.1z"/>
			</g>
		</g>
		<g>
			<g>
				<path class="st2" d="M15.9,53.7c0.5,0.4,0.8,1,0.9,1.9c0.1,0.8,0,1.5-0.3,2.1c-0.3,0.5-0.9,0.9-1.8,1l-3.9,0.6l-0.2-1.4l3.9-0.6
					c0.2,0,0.3-0.1,0.5-0.1c0.2-0.1,0.3-0.1,0.4-0.3c0.1-0.1,0.2-0.3,0.2-0.4c0.1-0.2,0.1-0.4,0-0.7c-0.1-0.5-0.2-0.8-0.5-1
					c-0.2-0.2-0.6-0.2-1.1-0.1l-3.9,0.6L10,53.9l3.9-0.6C14.8,53.1,15.4,53.3,15.9,53.7z"/>
			</g>
			<g>
				<path class="st2" d="M9.9,50.4l4.3-2.6l0,0L10,47.8l0-1.3l6.3,0.1l0,1.4L12,50.6l0,0l4.2,0.1l0,1.3l-6.3-0.1L9.9,50.4z"/>
			</g>
			<g>
				<path class="st2" d="M10.5,43.3l6.3,0.9l-0.2,1.4l-6.3-0.9L10.5,43.3z"/>
			</g>
			<g>
				<path class="st2" d="M17.2,41.8l-6.6,0.3l0.4-1.4l4.7-0.2l0,0L11.7,38l0.4-1.4l5.6,3.7L17.2,41.8z"/>
			</g>
			<g>
				<path class="st2" d="M14.5,31.1l1.1,0.5l-1.4,3l1.2,0.6l1.3-2.8l1,0.4l-1.3,2.8l1.4,0.6l1.4-3.1l1.1,0.5l-2,4.4l-5.8-2.6
					L14.5,31.1z"/>
			</g>
			<g>
				<path class="st2" d="M17.3,26.7c0.2-0.2,0.3-0.4,0.5-0.6c0.2-0.1,0.4-0.2,0.6-0.3c0.2,0,0.4,0,0.7,0c0.2,0,0.4,0.1,0.6,0.3
					c0.3,0.2,0.5,0.5,0.7,0.7c0.1,0.3,0.2,0.6,0.1,1l0,0c0.1-0.1,0.3-0.2,0.4-0.2c0.1,0,0.3,0,0.4,0c0.1,0,0.3,0.1,0.4,0.1
					c0.2,0.1,0.3,0.1,0.4,0.2c0.1,0.1,0.2,0.1,0.3,0.2c0.1,0.1,0.2,0.1,0.4,0.2c0.1,0.1,0.3,0.1,0.4,0.2c0.1,0,0.2,0.1,0.3,0.1
					l-0.8,1.2c-0.2,0-0.4-0.1-0.7-0.3c-0.2-0.1-0.5-0.3-0.7-0.4c-0.3-0.1-0.6-0.2-0.8-0.2c-0.2,0-0.4,0.2-0.6,0.5l-0.8,1.2l2,1.4
					l-0.8,1.2l-5.2-3.5L17.3,26.7z M19.4,28.7c0.2-0.3,0.3-0.5,0.2-0.7c0-0.2-0.2-0.4-0.4-0.6c-0.3-0.2-0.5-0.2-0.7-0.2
					c-0.2,0.1-0.4,0.2-0.6,0.5L17.1,29l1.5,1L19.4,28.7z"/>
			</g>
			<g>
				<path class="st2" d="M23.8,26.2c0.2,0,0.3,0.1,0.5,0c0.2,0,0.3-0.1,0.5-0.2c0.1-0.1,0.3-0.2,0.4-0.3c0.1-0.1,0.2-0.2,0.3-0.3
					c0.1-0.1,0.1-0.2,0.2-0.4c0-0.1,0.1-0.3,0-0.4c0-0.1-0.1-0.3-0.2-0.4c-0.1-0.1-0.3-0.2-0.4-0.2c-0.2,0-0.3,0-0.5,0.1
					c-0.2,0.1-0.4,0.2-0.6,0.3c-0.2,0.1-0.4,0.2-0.6,0.4c-0.2,0.1-0.4,0.2-0.6,0.3c-0.2,0.1-0.4,0.2-0.7,0.2c-0.2,0-0.4,0-0.7,0
					c-0.2-0.1-0.4-0.2-0.6-0.4c-0.2-0.2-0.4-0.5-0.5-0.7c-0.1-0.3-0.1-0.5-0.1-0.8c0-0.3,0.1-0.5,0.3-0.8c0.1-0.3,0.3-0.5,0.5-0.7
					c0.2-0.2,0.5-0.4,0.7-0.6c0.3-0.2,0.5-0.3,0.8-0.3c0.3-0.1,0.6,0,0.8,0c0.3,0.1,0.6,0.2,0.8,0.5l-0.9,1
					c-0.1-0.1-0.3-0.2-0.4-0.2c-0.1,0-0.3,0-0.4,0c-0.1,0-0.3,0.1-0.4,0.2c-0.1,0.1-0.2,0.2-0.4,0.3c-0.1,0.1-0.1,0.2-0.2,0.3
					c-0.1,0.1-0.1,0.2-0.1,0.3c0,0.1,0,0.2,0,0.3c0,0.1,0.1,0.2,0.2,0.3c0.1,0.1,0.2,0.1,0.3,0.2c0.1,0,0.2,0,0.3-0.1
					c0.1-0.1,0.3-0.1,0.5-0.3c0.2-0.1,0.5-0.3,0.8-0.5c0.1-0.1,0.2-0.2,0.4-0.3c0.2-0.1,0.4-0.2,0.6-0.2c0.2-0.1,0.5-0.1,0.8,0
					c0.3,0,0.5,0.2,0.8,0.4c0.2,0.2,0.4,0.4,0.5,0.7c0.1,0.3,0.1,0.5,0.1,0.8c0,0.3-0.1,0.6-0.3,0.9c-0.2,0.3-0.4,0.6-0.7,0.9
					c-0.2,0.3-0.5,0.5-0.8,0.6c-0.3,0.2-0.6,0.3-0.9,0.3c-0.3,0.1-0.6,0-0.9-0.1c-0.3-0.1-0.6-0.3-0.9-0.5l0.9-1
					C23.4,26,23.6,26.1,23.8,26.2z"/>
			</g>
			<g>
				<path class="st2" d="M25.2,18.4l4,4.9l-1.1,0.9l-4-4.9L25.2,18.4z"/>
			</g>
			<g>
				<path class="st2" d="M26.8,18.5l-0.6-1l4.3-2.8l0.6,1l-1.6,1l2.8,4.3l-1.2,0.8l-2.8-4.3L26.8,18.5z"/>
			</g>
			<g>
				<path class="st2" d="M31.1,14.3l1.4-0.6l2.4,1.7l0.3-2.9l1.4-0.6l-0.6,4.5l1,2.2l-1.3,0.6l-1-2.2L31.1,14.3z"/>
			</g>
		</g>
		<g>
			<g>
				<path class="st2" d="M44.3,11.7c0.1-0.4,0.3-0.8,0.5-1.1c0.2-0.3,0.5-0.6,0.9-0.8c0.4-0.2,0.8-0.3,1.3-0.4c0.5,0,0.9,0,1.3,0.2
					c0.4,0.1,0.7,0.4,1,0.6c0.3,0.3,0.5,0.6,0.7,1c0.2,0.4,0.3,0.8,0.3,1.3c0,0.5,0,0.9-0.1,1.3c-0.1,0.4-0.3,0.8-0.5,1.1
					c-0.2,0.3-0.5,0.6-0.9,0.8c-0.4,0.2-0.8,0.3-1.3,0.4c-0.5,0-0.9,0-1.3-0.1c-0.4-0.1-0.7-0.3-1-0.6c-0.3-0.3-0.5-0.6-0.7-1
					c-0.2-0.4-0.3-0.8-0.3-1.3C44.2,12.6,44.2,12.2,44.3,11.7z M45.8,13.7c0.1,0.2,0.2,0.5,0.3,0.7c0.2,0.2,0.3,0.3,0.6,0.4
					c0.2,0.1,0.5,0.1,0.8,0.1c0.3,0,0.6-0.1,0.8-0.2c0.2-0.1,0.4-0.3,0.5-0.5c0.1-0.2,0.2-0.4,0.2-0.7c0-0.3,0.1-0.5,0-0.8
					c0-0.3-0.1-0.5-0.2-0.8c-0.1-0.3-0.2-0.5-0.3-0.7c-0.2-0.2-0.3-0.3-0.6-0.4c-0.2-0.1-0.5-0.1-0.8-0.1c-0.3,0-0.6,0.1-0.8,0.2
					c-0.2,0.1-0.4,0.3-0.5,0.5c-0.1,0.2-0.2,0.5-0.2,0.7c0,0.3-0.1,0.5,0,0.8C45.6,13.2,45.7,13.5,45.8,13.7z"/>
			</g>
			<g>
				<path class="st2" d="M56.1,9.7l0,1.2l-3.1,0l0,1.5l2.6,0l0,1.1l-2.6,0l0,2.6l-1.4,0l0-6.3L56.1,9.7z"/>
			</g>
		</g>
	</g>
	<g>
		<g>
			<path class="st5" d="M37.4,72.4c0-0.2,0.1-0.4,0-0.5c-0.1-0.1-0.1-0.1-0.1-0.2c0-0.1,0-0.1,0.1-0.1c0.1,0,0.1,0.1,0.2,0.1
				c0.1,0,0.2,0,0.2,0.1c0.1,0,0.1,0,0.1,0.1l0,1.8c0,0.2,0,0.3,0,0.3c0,0,0.1-0.1,0.1-0.1l1.1-1.5c0.1-0.1,0.1-0.1,0.1-0.1
				c0.1,0,0.1,0.1,0.2,0.1c0.1,0,0.2,0,0.2,0.1c0,0,0,0,0,0.1c0,0.1-0.1,0.1-0.2,0.1c-0.1,0-0.2,0-0.2,0.3l-0.5,1.4
				c-0.1,0.3-0.2,0.5,0,0.7c0,0,0.1,0.1,0,0.1c0,0.1-0.1,0-0.1,0c-0.1,0-0.2-0.1-0.3-0.1c-0.1,0-0.2-0.1-0.3-0.1
				c-0.1,0-0.1,0-0.1-0.1c0-0.1,0-0.1,0.1-0.1c0.1,0,0.1-0.1,0.2-0.3l0.4-1.3c0,0,0-0.1,0-0.1c0,0-0.1,0-0.1,0.1l-1,1.5
				c0,0.1-0.1,0.1-0.1,0.1c0,0,0-0.1,0-0.1l0-1.8c0-0.1,0-0.1,0-0.1c0,0,0,0-0.1,0.1l-0.3,1.1c-0.1,0.3-0.1,0.5,0,0.6
				c0,0,0.1,0.1,0,0.1c0,0.1-0.1,0-0.1,0c-0.1,0-0.2-0.1-0.3-0.1c-0.1,0-0.2,0-0.3-0.1c0,0-0.1,0,0-0.1c0-0.1,0.1-0.1,0.1-0.1
				c0.2-0.1,0.2-0.2,0.3-0.4L37.4,72.4z"/>
		</g>
		<g>
			<path class="st5" d="M40,73.2c0-0.2,0.1-0.5,0-0.6c-0.1,0-0.1-0.1-0.1-0.1c0-0.1,0.1-0.1,0.1,0c0.2,0.1,0.4,0.1,0.6,0.1
				c0.2,0,0.4,0,0.6,0.1c0.1,0,0.1,0,0.1,0.1c0,0.1,0,0.2-0.1,0.3c0,0.1,0,0.2,0,0.3c0,0,0,0.1-0.1,0.1c0,0,0-0.1,0-0.1
				c0-0.3,0-0.4-0.3-0.4l-0.2,0c-0.1,0-0.1,0-0.1,0.2l-0.1,0.7c0,0.1,0,0.1,0.1,0.1c0.2,0,0.3,0,0.4-0.2c0-0.1,0.1-0.1,0.1-0.1
				c0,0,0,0.1,0,0.1c0,0.1-0.1,0.2-0.1,0.4c0,0.1,0,0.2,0,0.4c0,0.1,0,0.1-0.1,0.1c0,0,0-0.1,0-0.2c0-0.2-0.1-0.2-0.3-0.2
				c-0.1,0-0.2,0-0.2,0.1l-0.1,0.7c0,0.3,0,0.4,0.1,0.4c0.3,0,0.5-0.1,0.6-0.2c0.1-0.1,0.2-0.3,0.2-0.3c0,0,0,0,0,0.1
				c0,0.1-0.1,0.2-0.1,0.3c-0.1,0.2-0.2,0.3-0.3,0.3c-0.2,0-0.4-0.1-0.5-0.1c-0.2,0-0.4,0-0.5-0.1c-0.1,0-0.1,0-0.1-0.1
				c0-0.1,0.1-0.1,0.1-0.1c0.1-0.1,0.1-0.1,0.2-0.4L40,73.2z"/>
		</g>
		<g>
			<path class="st5" d="M42.2,73.7c0-0.1-0.1-0.2-0.1-0.2c0,0,0,0,0,0.1L41.8,75c0,0.2,0,0.4,0.1,0.4c0.1,0,0.1,0.1,0.1,0.1
				c0,0.1-0.1,0.1-0.1,0.1c-0.1,0-0.2-0.1-0.3-0.1c-0.1,0-0.2,0-0.3,0c0,0-0.1,0,0-0.1c0-0.1,0-0.1,0.1-0.1c0.2-0.1,0.2-0.2,0.3-0.4
				l0.3-1.6c0-0.2,0-0.4-0.1-0.5c-0.1-0.1-0.1-0.1-0.1-0.2c0-0.1,0-0.1,0-0.1c0.1,0,0.2,0,0.2,0.1c0.1,0,0.2,0,0.2,0
				c0.1,0,0.1,0,0.1,0.1l0.7,1.8c0,0.1,0.1,0.1,0.1,0.1c0,0,0-0.1,0-0.1l0.2-0.9c0-0.3,0.1-0.5-0.1-0.6c-0.1,0-0.1-0.1-0.1-0.1
				c0-0.1,0.1-0.1,0.1,0c0.1,0,0.2,0.1,0.3,0.1c0.1,0,0.2,0,0.3,0c0,0,0.1,0,0,0.1c0,0.1,0,0.1-0.1,0.1c-0.2,0.1-0.2,0.2-0.3,0.4
				l-0.4,2c0,0.2-0.1,0.2-0.1,0.2c0,0-0.1-0.1-0.1-0.2L42.2,73.7z"/>
		</g>
		<g>
			<path class="st5" d="M44,75.3c0,0,0-0.1,0-0.1c0,0,0-0.1,0.1,0c0.1,0,0,0.1,0,0.2c0,0.3,0.2,0.7,0.4,0.7c0.2,0,0.4-0.1,0.4-0.4
				c0.1-0.7-0.9-0.6-0.7-1.7c0.1-0.4,0.4-0.8,0.7-0.7c0.2,0,0.3,0.2,0.4,0.3c0,0,0.1,0,0.1,0c0,0,0,0,0,0.1
				c-0.1,0.2-0.1,0.6-0.1,0.7c0,0.1,0,0.1-0.1,0.1c0,0,0-0.1,0-0.2c0-0.3-0.2-0.6-0.4-0.7c-0.2,0-0.3,0.1-0.4,0.3
				c-0.1,0.7,0.9,0.5,0.7,1.7c-0.1,0.4-0.4,0.9-0.8,0.8c-0.2,0-0.3-0.2-0.4-0.2c0,0-0.1,0-0.1-0.1L44,75.3z"/>
		</g>
		<g>
			<path class="st1" d="M46.7,74.3c0.5,1.5,3.1,1,2.9,3.2c-0.2,0-0.2-0.3-0.2-0.5C48.8,75.8,46.5,76.4,46.7,74.3z"/>
		</g>
		<g>
			<path class="st1" d="M33.4,69.7c-0.6,1.6,2.2,1.7,1.4,3.4C34.5,71.7,32.1,71.3,33.4,69.7z"/>
		</g>
	</g>
	<g>
		<path class="st5" d="M52.9,75.8c0,0.1,0,0.2,0,0.2c0,0,0,0.1,0,0.1c0,0-0.1-0.1-0.1-0.1c-0.2-0.5-0.4-0.7-0.6-0.6
			c-0.3,0-0.5,0.4-0.3,1.3c0.1,0.7,0.4,1.3,0.7,1.2c0.2,0,0.4-0.2,0.4-0.5c0-0.1,0-0.1,0.1-0.2c0,0,0,0,0,0.1c0,0.1-0.1,0.9-0.6,1
			c-0.4,0.1-0.9-0.4-1-1.3c-0.2-1.2,0.2-1.7,0.6-1.8c0.3,0,0.5,0.2,0.5,0.2c0.1,0,0-0.1,0.1-0.1c0,0,0,0,0,0L52.9,75.8z"/>
	</g>
	<g>
		<path class="st5" d="M54.1,74.1c0.5-0.1,0.9,0.4,1,1.3c0.1,0.9-0.3,1.6-0.8,1.7c-0.5,0.1-0.9-0.4-1-1.3
			C53.3,74.9,53.6,74.2,54.1,74.1z M54.4,76.9c0.3,0,0.4-0.6,0.4-1.2c-0.1-0.6-0.3-1.4-0.7-1.4c-0.3,0-0.4,0.6-0.4,1.2
			C53.8,76.1,54,76.9,54.4,76.9z"/>
	</g>
	<g>
		<path class="st5" d="M55.7,74.1c0-0.2-0.1-0.3-0.2-0.3c0,0-0.1,0-0.1-0.1c0,0,0-0.1,0.1-0.1c0.1,0,0.1,0,0.3,0
			c0.1,0,0.3-0.1,0.5-0.1c0.4-0.1,0.7,0,0.8,0.6c0,0.3-0.1,0.4-0.2,0.5c-0.1,0.1-0.1,0.1-0.1,0.1c0,0.1,0.3,0.8,0.5,1
			c0,0,0.1,0.1,0.1,0.1c0,0,0.1,0,0.1,0c0,0,0,0,0,0.1c0,0.2-0.3,0.2-0.4,0.3c-0.1,0-0.2,0-0.2-0.2l-0.4-0.8
			c-0.1-0.1-0.1-0.2-0.2-0.2c-0.1,0-0.1,0-0.1,0.1l0,0.7c0,0.3,0.1,0.4,0.2,0.4c0,0,0.1,0,0.1,0.1c0,0,0,0.1-0.1,0.1
			c-0.1,0-0.2,0-0.3,0c-0.1,0-0.2,0.1-0.3,0.1c0,0-0.1,0-0.1,0c0-0.1,0-0.1,0.1-0.1c0.1-0.1,0.1-0.2,0.1-0.3L55.7,74.1z M56.2,74.6
			c0,0,0,0.1,0.2,0.1c0.2,0,0.3-0.2,0.3-0.6c0-0.3-0.1-0.5-0.4-0.5c-0.1,0-0.2,0.1-0.2,0.2L56.2,74.6z"/>
	</g>
	<g>
		<path class="st5" d="M58.1,73.6c0-0.3-0.1-0.3-0.2-0.3c0,0-0.1,0-0.1-0.1c0-0.1,0-0.1,0.1-0.1c0.1,0,0.3,0,0.4-0.1
			c0.1,0,0.4-0.1,0.5-0.2c0.3-0.1,0.6,0,0.6,0.6c0,0.5-0.3,0.9-0.6,0.9c-0.1,0-0.6,0.1-0.6-0.1c0,0,0.3-0.1,0.4-0.1
			c0.2-0.1,0.3-0.3,0.3-0.6c0-0.4-0.1-0.5-0.4-0.5c-0.1,0-0.1,0.1-0.2,0.2l-0.1,1.9c0,0.2,0.2,0.3,0.3,0.3c0,0,0.1,0,0,0.1
			c0,0.1-0.1,0.1-0.1,0.1c-0.1,0-0.2,0-0.3,0c-0.1,0-0.2,0.1-0.3,0.1c-0.1,0-0.1,0-0.1,0c0-0.1,0-0.1,0.1-0.1
			c0.1-0.1,0.1-0.2,0.1-0.4L58.1,73.6z"/>
	</g>
	<g>
		<path class="st5" d="M60,73.3C60,73,60,73,59.9,73c0,0,0,0,0-0.1c0-0.1,0-0.1,0.1-0.1c0.1,0,0.2,0,0.3,0c0.1,0,0.2-0.1,0.3-0.1
			c0.1,0,0.1,0,0.1,0c0,0,0,0.1-0.1,0.1c-0.1,0.1-0.1,0.2-0.1,0.3l0,1.2c0,0.4,0.1,0.7,0.4,0.7c0.4-0.1,0.5-0.6,0.5-1l0-1
			c0-0.2,0-0.3-0.2-0.3c0,0-0.1,0-0.1-0.1c0,0,0-0.1,0.1-0.1c0.1,0,0.1,0,0.2,0c0.1,0,0.1,0,0.2-0.1c0,0,0,0,0,0.1
			c0,0.1,0,0.1-0.1,0.1c-0.1,0.1-0.1,0.1-0.1,0.5l0,0.8c0,0.8-0.3,1.3-0.8,1.4c-0.4,0.1-0.6-0.2-0.6-0.9L60,73.3z"/>
	</g>
	<g>
		<path class="st5" d="M61.9,74.4c0,0,0-0.1,0-0.1c0,0,0-0.1,0.1-0.1c0.1,0,0.1,0.1,0.1,0.1c0.1,0.2,0.3,0.4,0.6,0.3
			c0.2-0.1,0.4-0.3,0.4-0.5c0-0.6-1.1,0-1.1-0.9c0-0.4,0.2-0.7,0.6-0.8c0.2-0.1,0.4,0,0.5,0c0,0,0.1-0.1,0.1-0.1c0,0,0,0,0,0.1
			c0,0.2,0,0.5,0,0.5c0,0,0,0.1-0.1,0.1c-0.1,0-0.1,0-0.1-0.1c-0.1-0.2-0.3-0.4-0.5-0.3c-0.2,0-0.3,0.2-0.3,0.4c0,0.6,1.1,0,1.1,0.9
			c0,0.3-0.2,0.8-0.6,0.9c-0.2,0.1-0.3,0-0.5,0c0,0-0.1,0-0.1,0L61.9,74.4z"/>
	</g>
	<g>
		<path class="st5" d="M64.1,74.2c-0.2-0.1-0.3-0.4-0.3-0.8c0-0.7,0.3-1.4,0.7-1.6c0.4-0.2,0.7,0.1,0.7,0.8c0,0.6-0.2,1.1-0.5,1.4
			c0.1,0,0.3,0.1,0.4,0.1c0.1,0,0.1-0.2,0.1-0.2c0,0,0,0,0,0.1c0,0.1-0.2,0.4-0.4,0.6c-0.1,0.1-0.2,0-0.3,0l-0.3-0.1 M64.6,74
			c0.2-0.1,0.4-0.6,0.4-1.1c0-0.5-0.2-1.1-0.5-0.9c-0.2,0.1-0.4,0.6-0.4,1.1C64.1,73.5,64.2,74.2,64.6,74z"/>
	</g>
	<g>
		<path class="st5" d="M65.8,71.7c0-0.2-0.1-0.2-0.2-0.2c0,0,0,0,0-0.1c0,0,0-0.1,0.1-0.1c0.1,0,0.2,0,0.2-0.1
			c0.1,0,0.2-0.1,0.2-0.1c0,0,0.1,0,0.1,0c0,0,0,0.1-0.1,0.1c-0.1,0.1-0.1,0.2-0.1,0.3l0.1,1c0,0.4,0.2,0.6,0.5,0.5
			c0.4-0.1,0.4-0.6,0.4-1l-0.1-0.8c0-0.2-0.1-0.2-0.2-0.2c0,0-0.1,0-0.1-0.1c0,0,0-0.1,0.1-0.1c0.1,0,0.1,0,0.2,0
			c0.1,0,0.1-0.1,0.2-0.1c0,0,0,0,0,0c0,0.1,0,0.1-0.1,0.1c-0.1,0.1-0.1,0.1,0,0.4l0.1,0.7c0.1,0.7-0.1,1.2-0.6,1.3
			c-0.4,0.1-0.6,0-0.6-0.7L65.8,71.7z"/>
	</g>
	<g>
		<path class="st5" d="M67.6,70.7c0-0.2,0-0.4-0.1-0.4c-0.1,0-0.1,0-0.1,0c0-0.1,0-0.1,0.1-0.1c0.2-0.1,0.3-0.2,0.5-0.3
			c0.2-0.1,0.3-0.3,0.5-0.4c0,0,0.1-0.1,0.1,0c0,0.1,0,0.2,0,0.2c0,0.1,0,0.2,0,0.2c0,0,0,0.1,0,0.1c0,0,0,0,0-0.1
			c0-0.2-0.1-0.3-0.3-0.1L68,70c-0.1,0-0.1,0.1-0.1,0.2l0,0.6c0,0.1,0,0,0.1,0c0.1-0.1,0.2-0.2,0.2-0.4c0-0.1,0-0.1,0-0.2
			c0,0,0,0,0,0.1c0,0.1,0,0.2,0,0.3c0,0.1,0,0.2,0,0.3c0,0.1,0,0.1,0,0.1c0,0,0-0.1-0.1-0.1c-0.1-0.1-0.1-0.1-0.3,0
			C68,71.1,68,71.1,68,71.2l0,0.6c0,0.3,0,0.3,0.2,0.2c0.2-0.2,0.3-0.4,0.4-0.5c0.1-0.2,0.1-0.3,0.1-0.3c0,0,0,0,0,0
			c0,0.1,0,0.2,0,0.3c0,0.2-0.1,0.4-0.2,0.5c-0.1,0.1-0.3,0.2-0.4,0.3c-0.1,0.1-0.3,0.2-0.4,0.3c-0.1,0-0.1,0.1-0.1,0
			c0-0.1,0-0.1,0.1-0.2c0.1-0.1,0.1-0.2,0.1-0.4L67.6,70.7z"/>
	</g>
</g>
<g>
	<path class="st0" d="M82.3,81.8v2.6h-0.4v-2.6h-0.5v-0.4h1.3v0.4H82.3z"/>
	<path class="st0" d="M84.4,84.5c0-0.4,0-0.7,0-1c0-0.1,0-0.3,0-0.4c0-0.1,0-0.3,0-0.4c0-0.1,0-0.2,0-0.3c0-0.1,0-0.2,0-0.2
		c0,0.1,0,0.2,0,0.3c0,0.1,0,0.2,0,0.3c0,0.1,0,0.3-0.1,0.4c0,0.1,0,0.3-0.1,0.4c0,0.3-0.1,0.7-0.1,1h-0.3l-0.3-2.4v2.4H83v-3h0.6
		l0.3,2l0.3-2h0.6v3H84.4z"/>
</g>
</svg>
